<svg viewBox="0 0 256 60" fill="none" xmlns="http://www.w3.org/2000/svg"><rect width="256" height="60" rx="30" fill="#1F3B74"/><path d="M76.441 23.115h8.728v2.162h-6.126V36h-2.602V23.115zm8.596 8.086c0-.82.202-1.614.607-2.382a4.17 4.17 0 011.713-1.758c.745-.404 1.574-.606 2.488-.606 1.412 0 2.57.46 3.471 1.38.903.914 1.354 2.071 1.354 3.472 0 1.412-.457 2.584-1.371 3.515-.908.926-2.054 1.389-3.437 1.389a5.447 5.447 0 01-2.452-.58 3.99 3.99 0 01-1.766-1.696c-.405-.75-.607-1.662-.607-2.734zm2.531.132c0 .926.22 1.635.66 2.127.439.492.981.738 1.626.738.644 0 1.183-.246 1.617-.738.44-.492.659-1.207.659-2.145 0-.914-.22-1.617-.66-2.109-.433-.492-.972-.738-1.617-.738-.644 0-1.186.246-1.625.738-.44.492-.66 1.201-.66 2.127zm9.255-4.667h8.271V36h-2.461v-7.33h-3.366v4.192c0 1.067-.123 1.817-.37 2.25-.246.428-.518.71-.817.844-.299.135-.78.202-1.441.202-.393 0-.911-.053-1.556-.158v-1.82c.053 0 .19.007.413.018a9.2 9.2 0 00.598.027c.334 0 .539-.109.615-.326.076-.222.114-.834.114-1.837v-5.396zm9.958 4.535c0-.82.202-1.614.607-2.382a4.164 4.164 0 011.714-1.758c.744-.404 1.573-.606 2.487-.606 1.412 0 2.569.46 3.472 1.38.902.914 1.353 2.071 1.353 3.472 0 1.412-.457 2.584-1.371 3.515-.908.926-2.054 1.389-3.437 1.389a5.45 5.45 0 01-2.452-.58 3.99 3.99 0 01-1.766-1.696c-.405-.75-.607-1.662-.607-2.734zm2.531.132c0 .926.22 1.635.66 2.127.439.492.981.738 1.626.738.644 0 1.183-.246 1.617-.738.439-.492.659-1.207.659-2.145 0-.914-.22-1.617-.659-2.109-.434-.492-.973-.738-1.617-.738-.645 0-1.187.246-1.626.738-.44.492-.66 1.201-.66 2.127zm16.937-1.907l-2.435.44c-.082-.487-.269-.853-.562-1.1-.287-.245-.662-.368-1.125-.368-.615 0-1.107.213-1.477.641-.363.422-.545 1.13-.545 2.127 0 1.107.185 1.89.554 2.347.375.457.876.685 1.503.685.469 0 .853-.132 1.151-.395.299-.27.51-.73.633-1.38l2.426.413c-.252 1.113-.735 1.954-1.45 2.522-.715.569-1.673.853-2.874.853-1.365 0-2.455-.43-3.27-1.292-.808-.861-1.213-2.054-1.213-3.577 0-1.541.408-2.74 1.222-3.595.815-.861 1.916-1.292 3.305-1.292 1.137 0 2.039.246 2.707.738.674.487 1.157 1.23 1.45 2.233zm1.31 1.775c0-.82.202-1.614.606-2.382a4.17 4.17 0 011.714-1.758c.744-.404 1.573-.606 2.487-.606 1.412 0 2.57.46 3.472 1.38.902.914 1.353 2.071 1.353 3.472 0 1.412-.457 2.584-1.371 3.515-.908.926-2.053 1.389-3.436 1.389a5.444 5.444 0 01-2.452-.58 3.987 3.987 0 01-1.767-1.696c-.404-.75-.606-1.662-.606-2.734zm2.531.132c0 .926.22 1.635.659 2.127.439.492.981.738 1.626.738.645 0 1.184-.246 1.617-.738.44-.492.659-1.207.659-2.145 0-.914-.219-1.617-.659-2.109-.433-.492-.972-.738-1.617-.738s-1.187.246-1.626.738c-.439.492-.659 1.201-.659 2.127zm9.07-4.667h5.405c1.108 0 1.937.202 2.488.607.551.404.826 1.013.826 1.828 0 .521-.152.975-.457 1.362a2.136 2.136 0 01-1.134.773c.645.159 1.125.454 1.441.888.317.434.475.908.475 1.424 0 .726-.266 1.318-.8 1.775-.533.451-1.321.677-2.364.677h-5.88v-9.334zm2.487 3.876h1.591c.768 0 1.322-.097 1.661-.29.346-.193.519-.498.519-.914 0-.393-.161-.671-.483-.835-.317-.17-.882-.255-1.697-.255h-1.591v2.294zm0 3.876h1.952c.703 0 1.215-.085 1.538-.255.322-.17.483-.474.483-.914 0-.457-.184-.77-.554-.94-.369-.176-1.087-.264-2.153-.264h-1.266v2.373zm10.161-4.904l-2.242-.405c.252-.902.686-1.57 1.301-2.004.615-.433 1.529-.65 2.742-.65 1.102 0 1.922.132 2.461.396.539.257.917.588 1.134.993.223.398.334 1.133.334 2.206l-.026 2.883c0 .82.038 1.426.114 1.819.082.387.231.803.448 1.248h-2.443a8.605 8.605 0 01-.237-.73 4.789 4.789 0 00-.088-.29 4.45 4.45 0 01-1.354.923c-.48.205-.993.308-1.538.308-.961 0-1.72-.26-2.276-.782-.551-.522-.826-1.181-.826-1.978 0-.527.126-.996.377-1.406a2.44 2.44 0 011.055-.95c.457-.222 1.113-.415 1.969-.58 1.154-.216 1.954-.418 2.399-.606v-.246c0-.474-.117-.811-.351-1.01-.235-.206-.677-.308-1.327-.308-.44 0-.783.088-1.029.263-.246.17-.445.472-.597.906zm3.304 2.004c-.316.105-.817.231-1.503.377-.685.147-1.133.29-1.344.431-.323.229-.484.519-.484.87 0 .346.129.645.387.897s.586.378.984.378c.446 0 .87-.147 1.275-.44.299-.222.495-.495.589-.817.064-.211.096-.612.096-1.204v-.492zm3.762-4.852h8.446v1.995h-2.988V36h-2.47v-7.339h-2.988v-1.995zm9.984 0h2.47v3.876h2.479c.972 0 1.719.07 2.241.21.521.142.955.446 1.301.915.345.463.518 1.002.518 1.617 0 .903-.31 1.582-.931 2.04-.616.45-1.541.676-2.778.676h-5.3v-9.334zm2.47 7.77h2.303c.721 0 1.181-.118 1.38-.352.205-.234.307-.513.307-.835 0-.451-.175-.762-.527-.932-.346-.17-.964-.255-1.854-.255h-1.609v2.373zM184.925 36V23.115h8.833v2.18h-6.232v3.05h5.379v2.18h-5.379V36h-2.601zm10.995-12.885h5.15c1.02 0 1.779.044 2.277.132a3.27 3.27 0 011.344.527c.399.27.73.63.994 1.081a2.9 2.9 0 01.395 1.503c0 .604-.164 1.158-.492 1.662a2.996 2.996 0 01-1.318 1.133c.785.229 1.388.619 1.81 1.17.422.55.633 1.197.633 1.942 0 .586-.138 1.157-.413 1.713-.27.551-.642.994-1.116 1.328-.469.328-1.049.53-1.741.606-.433.047-1.479.076-3.137.088h-4.386V23.115zm2.601 2.145v2.98h1.706c1.013 0 1.643-.015 1.889-.045.446-.052.794-.205 1.046-.457.258-.258.387-.594.387-1.01 0-.399-.111-.721-.334-.967-.217-.252-.542-.405-.976-.457-.258-.03-.999-.044-2.223-.044h-1.495zm0 5.124v3.445h2.409c.937 0 1.532-.026 1.784-.079.387-.07.7-.24.94-.51.246-.275.369-.641.369-1.098 0-.387-.093-.715-.281-.985-.187-.27-.46-.466-.817-.589-.352-.123-1.119-.184-2.303-.184h-2.101z" fill="#fff"/><path d="M0 30C0 13.431 13.431 0 30 0c16.569 0 30 13.431 30 30 0 16.569-13.431 30-30 30C13.431 60 0 46.569 0 30z" fill="#3B5998"/><path d="M33.127 47.64V31.317h4.505l.598-5.625h-5.103l.008-2.815c0-1.467.139-2.253 2.246-2.253h2.817V15H33.69c-5.412 0-7.317 2.729-7.317 7.317v3.377H23v5.624h3.374V47.64h6.753z" fill="#fff"/></svg>