<svg width="256" height="60" fill="none" xmlns="http://www.w3.org/2000/svg"><rect width="256" height="60" rx="30" fill="#D06313"/><path d="M76.441 23.115h8.728v2.162h-6.126V36h-2.602V23.115zm8.596 8.086c0-.82.202-1.614.607-2.382a4.17 4.17 0 011.713-1.758c.745-.404 1.574-.606 2.488-.606 1.412 0 2.57.46 3.471 1.38.903.914 1.354 2.071 1.354 3.472 0 1.412-.457 2.584-1.371 3.515-.908.926-2.054 1.389-3.437 1.389a5.447 5.447 0 01-2.452-.58 3.99 3.99 0 01-1.766-1.696c-.405-.75-.607-1.662-.607-2.734zm2.531.132c0 .926.22 1.635.66 2.127.439.492.981.738 1.626.738.644 0 1.183-.246 1.617-.738.44-.492.659-1.207.659-2.145 0-.914-.22-1.617-.66-2.109-.433-.492-.972-.738-1.617-.738-.644 0-1.186.246-1.625.738-.44.492-.66 1.201-.66 2.127zm9.255-4.667h8.271V36h-2.461v-7.33h-3.366v4.192c0 1.067-.123 1.817-.37 2.25-.246.428-.518.71-.817.844-.299.135-.78.202-1.441.202-.393 0-.911-.053-1.556-.158v-1.82c.053 0 .19.007.413.018a9.2 9.2 0 00.598.027c.334 0 .539-.109.615-.326.076-.222.114-.834.114-1.837v-5.396zm9.958 4.535c0-.82.202-1.614.607-2.382a4.164 4.164 0 011.714-1.758c.744-.404 1.573-.606 2.487-.606 1.412 0 2.569.46 3.472 1.38.902.914 1.353 2.071 1.353 3.472 0 1.412-.457 2.584-1.371 3.515-.908.926-2.054 1.389-3.437 1.389a5.45 5.45 0 01-2.452-.58 3.99 3.99 0 01-1.766-1.696c-.405-.75-.607-1.662-.607-2.734zm2.531.132c0 .926.22 1.635.66 2.127.439.492.981.738 1.626.738.644 0 1.183-.246 1.617-.738.439-.492.659-1.207.659-2.145 0-.914-.22-1.617-.659-2.109-.434-.492-.973-.738-1.617-.738-.645 0-1.187.246-1.626.738-.44.492-.66 1.201-.66 2.127zm16.937-1.907l-2.435.44c-.082-.487-.269-.853-.562-1.1-.287-.245-.662-.368-1.125-.368-.615 0-1.107.213-1.477.641-.363.422-.545 1.13-.545 2.127 0 1.107.185 1.89.554 2.347.375.457.876.685 1.503.685.469 0 .853-.132 1.151-.395.299-.27.51-.73.633-1.38l2.426.413c-.252 1.113-.735 1.954-1.45 2.522-.715.569-1.673.853-2.874.853-1.365 0-2.455-.43-3.27-1.292-.808-.861-1.213-2.054-1.213-3.577 0-1.541.408-2.74 1.222-3.595.815-.861 1.916-1.292 3.305-1.292 1.137 0 2.039.246 2.707.738.674.487 1.157 1.23 1.45 2.233zm1.31 1.775c0-.82.202-1.614.606-2.382a4.17 4.17 0 011.714-1.758c.744-.404 1.573-.606 2.487-.606 1.412 0 2.57.46 3.472 1.38.902.914 1.353 2.071 1.353 3.472 0 1.412-.457 2.584-1.371 3.515-.908.926-2.053 1.389-3.436 1.389a5.444 5.444 0 01-2.452-.58 3.987 3.987 0 01-1.767-1.696c-.404-.75-.606-1.662-.606-2.734zm2.531.132c0 .926.22 1.635.659 2.127.439.492.981.738 1.626.738.645 0 1.184-.246 1.617-.738.44-.492.659-1.207.659-2.145 0-.914-.219-1.617-.659-2.109-.433-.492-.972-.738-1.617-.738s-1.187.246-1.626.738c-.439.492-.659 1.201-.659 2.127zm9.07-4.667h5.405c1.108 0 1.937.202 2.488.607.551.404.826 1.013.826 1.828 0 .521-.152.975-.457 1.362a2.136 2.136 0 01-1.134.773c.645.159 1.125.454 1.441.888.317.434.475.908.475 1.424 0 .726-.266 1.318-.8 1.775-.533.451-1.321.677-2.364.677h-5.88v-9.334zm2.487 3.876h1.591c.768 0 1.322-.097 1.661-.29.346-.193.519-.498.519-.914 0-.393-.161-.671-.483-.835-.317-.17-.882-.255-1.697-.255h-1.591v2.294zm0 3.876h1.952c.703 0 1.215-.085 1.538-.255.322-.17.483-.474.483-.914 0-.457-.184-.77-.554-.94-.369-.176-1.087-.264-2.153-.264h-1.266v2.373zm10.161-4.904l-2.242-.405c.252-.902.686-1.57 1.301-2.004.615-.433 1.529-.65 2.742-.65 1.102 0 1.922.132 2.461.396.539.257.917.588 1.134.993.223.398.334 1.133.334 2.206l-.026 2.883c0 .82.038 1.426.114 1.819.082.387.231.803.448 1.248h-2.443a8.605 8.605 0 01-.237-.73 4.789 4.789 0 00-.088-.29 4.45 4.45 0 01-1.354.923c-.48.205-.993.308-1.538.308-.961 0-1.72-.26-2.276-.782-.551-.522-.826-1.181-.826-1.978 0-.527.126-.996.377-1.406a2.44 2.44 0 011.055-.95c.457-.222 1.113-.415 1.969-.58 1.154-.216 1.954-.418 2.399-.606v-.246c0-.474-.117-.811-.351-1.01-.235-.206-.677-.308-1.327-.308-.44 0-.783.088-1.029.263-.246.17-.445.472-.597.906zm3.304 2.004c-.316.105-.817.231-1.503.377-.685.147-1.133.29-1.344.431-.323.229-.484.519-.484.87 0 .346.129.645.387.897s.586.378.984.378c.446 0 .87-.147 1.275-.44.299-.222.495-.495.589-.817.064-.211.096-.612.096-1.204v-.492zm3.762-4.852h8.446v1.995h-2.988V36h-2.47v-7.339h-2.988v-1.995zm9.984 0h2.47v3.876h2.479c.972 0 1.719.07 2.241.21.521.142.955.446 1.301.915.345.463.518 1.002.518 1.617 0 .903-.31 1.582-.931 2.04-.616.45-1.541.676-2.778.676h-5.3v-9.334zm2.47 7.77h2.303c.721 0 1.181-.118 1.38-.352.205-.234.307-.513.307-.835 0-.451-.175-.762-.527-.932-.346-.17-.964-.255-1.854-.255h-1.609v2.373zm13.052-4.8c0-1.312.196-2.413.589-3.304a6.106 6.106 0 011.195-1.767 5.059 5.059 0 011.67-1.16c.803-.34 1.728-.51 2.777-.51 1.899 0 3.416.59 4.553 1.767 1.143 1.178 1.714 2.816 1.714 4.913 0 2.08-.566 3.71-1.696 4.887-1.131 1.172-2.643 1.758-4.536 1.758-1.916 0-3.439-.583-4.57-1.75-1.131-1.171-1.696-2.782-1.696-4.833zm2.681-.087c0 1.459.336 2.566 1.01 3.322.674.75 1.53 1.125 2.567 1.125 1.037 0 1.886-.372 2.549-1.116.667-.75 1.001-1.872 1.001-3.366 0-1.477-.325-2.578-.975-3.305-.645-.727-1.503-1.09-2.575-1.09-1.073 0-1.937.37-2.593 1.108-.656.732-.984 1.84-.984 3.322zM198.952 36V23.115h2.602v5.722l5.256-5.722h3.498l-4.852 5.019L210.571 36h-3.366l-3.542-6.047-2.109 2.153V36h-2.602z" fill="#fff"/><path d="M0 30C0 13.431 13.431 0 30 0c16.569 0 30 13.431 30 30 0 16.569-13.431 30-30 30C13.431 60 0 46.569 0 30z" fill="#F68634"/><path d="M33.3 22.742c0-1.767-1.49-3.205-3.32-3.205-1.83 0-3.321 1.438-3.321 3.205 0 1.766 1.49 3.204 3.32 3.204 1.832 0 3.321-1.438 3.321-3.204zm4.7 0c0 4.268-3.596 7.74-8.02 7.74-4.423 0-8.02-3.472-8.02-7.74 0-4.27 3.597-7.742 8.02-7.742 4.424 0 8.02 3.473 8.02 7.742zm-.098 12.197a15.332 15.332 0 01-4.657 1.861l4.483 4.329a2.21 2.21 0 010 3.207 2.407 2.407 0 01-3.32 0l-4.409-4.253-4.404 4.253a2.39 2.39 0 01-1.663.663c-.6 0-1.201-.22-1.66-.663a2.213 2.213 0 01-.002-3.207l4.484-4.329a15.355 15.355 0 01-4.657-1.861c-1.097-.668-1.427-2.067-.735-3.128.69-1.061 2.14-1.38 3.239-.713 3.283 1.994 7.513 1.994 10.798 0 1.1-.668 2.548-.348 3.24.713.691 1.06.36 2.46-.737 3.128z" fill="#fff"/></svg>