<svg viewBox="0 0 115 152" fill="none" xmlns="http://www.w3.org/2000/svg"><path d="M12.816 105.684l3.364 1.066c-.516 1.875-1.375 3.27-2.578 4.184-1.196.906-2.715 1.359-4.559 1.359-2.281 0-4.156-.777-5.625-2.332-1.469-1.563-2.203-3.695-2.203-6.399 0-2.859.738-5.078 2.215-6.656 1.476-1.586 3.418-2.379 5.824-2.379 2.101 0 3.809.621 5.121 1.864.781.734 1.367 1.789 1.758 3.164l-3.434.82c-.203-.89-.629-1.594-1.277-2.11-.64-.515-1.422-.773-2.344-.773-1.273 0-2.308.457-3.105 1.371-.79.914-1.184 2.395-1.184 4.442 0 2.172.39 3.718 1.172 4.64.781.922 1.797 1.383 3.047 1.383.922 0 1.715-.293 2.379-.879.664-.586 1.14-1.508 1.43-2.765zm6.422-6.13h4.078l3.094 8.673 3.117-8.672h4.067V112h-2.801v-8.191L27.758 112h-2.813l-2.894-8.191V112h-2.813V99.555zm16.582 6.048c0-1.094.27-2.153.809-3.176.539-1.024 1.3-1.805 2.285-2.344.992-.539 2.098-.809 3.316-.809 1.883 0 3.426.614 4.63 1.84 1.203 1.219 1.804 2.762 1.804 4.629 0 1.883-.61 3.446-1.828 4.688-1.211 1.234-2.738 1.851-4.582 1.851a7.27 7.27 0 01-3.27-.773 5.324 5.324 0 01-2.355-2.262c-.54-1-.809-2.215-.809-3.644zm3.375.175c0 1.235.293 2.18.88 2.836.585.657 1.308.985 2.167.985.86 0 1.578-.328 2.156-.985.586-.656.88-1.609.88-2.859 0-1.219-.294-2.156-.88-2.813-.578-.656-1.296-.984-2.156-.984-.86 0-1.582.328-2.168.984-.586.657-.879 1.602-.879 2.836zm9.973-6.222H60.43v2.66h-3.985V112h-3.293v-9.785h-3.984v-2.66zm13.148 0h3.07v1.828a4.595 4.595 0 011.618-1.524 4.458 4.458 0 012.262-.586c1.445 0 2.671.567 3.68 1.7 1.007 1.132 1.511 2.711 1.511 4.734 0 2.078-.508 3.695-1.523 4.852-1.016 1.148-2.246 1.722-3.692 1.722a4.224 4.224 0 01-1.875-.41c-.555-.273-1.14-.742-1.758-1.406v6.269h-3.293v-17.18zm3.258 6.011c0 1.399.278 2.434.832 3.106.555.664 1.23.996 2.028.996.765 0 1.402-.305 1.91-.914.508-.617.762-1.625.762-3.024 0-1.304-.262-2.273-.786-2.906-.523-.633-1.172-.949-1.945-.949-.805 0-1.473.313-2.004.937-.531.618-.797 1.536-.797 2.754zm18.715 2.473l3.281.551c-.422 1.203-1.09 2.121-2.004 2.754-.906.625-2.043.937-3.41.937-2.164 0-3.765-.707-4.804-2.121-.82-1.133-1.23-2.562-1.23-4.289 0-2.062.538-3.676 1.616-4.84 1.078-1.172 2.442-1.758 4.09-1.758 1.852 0 3.313.614 4.383 1.84 1.07 1.219 1.582 3.09 1.535 5.614h-8.25c.023.976.29 1.738.797 2.285.508.539 1.14.808 1.898.808.516 0 .95-.14 1.301-.422.352-.281.617-.734.797-1.359zm.188-3.328c-.024-.953-.27-1.676-.739-2.168-.469-.5-1.039-.75-1.71-.75-.72 0-1.313.262-1.782.785-.469.524-.7 1.234-.691 2.133h4.922zm4.16-5.156h11.261v2.66h-3.984V112h-3.293v-9.785h-3.984v-2.66zm13.312 0h3.293v5.168h3.305c1.297 0 2.293.093 2.988.281.695.187 1.274.594 1.735 1.219.46.617.691 1.336.691 2.156 0 1.203-.414 2.109-1.242 2.719-.821.601-2.055.902-3.703.902h-7.067V99.555zm3.293 10.359h3.07c.961 0 1.575-.156 1.84-.469a1.63 1.63 0 00.41-1.113c0-.602-.234-1.016-.703-1.242-.461-.227-1.285-.34-2.472-.34h-2.145v3.164zm-82.383 21.641h7.207c1.477 0 2.582.269 3.317.808.734.539 1.101 1.352 1.101 2.438 0 .695-.203 1.301-.609 1.816-.398.516-.902.86-1.512 1.031.86.211 1.5.606 1.922 1.184a3.15 3.15 0 01.633 1.898c0 .969-.355 1.758-1.066 2.368-.711.601-1.762.902-3.153.902h-7.84v-12.445zm3.317 5.168h2.12c1.024 0 1.763-.129 2.216-.387.46-.258.691-.664.691-1.219 0-.523-.215-.894-.644-1.113-.422-.227-1.176-.34-2.262-.34h-2.121v3.059zm0 5.168h2.601c.938 0 1.621-.114 2.051-.34.43-.227.645-.633.645-1.219 0-.609-.246-1.027-.739-1.254-.492-.234-1.449-.351-2.87-.351h-1.688v3.164zm11.332-10.336h3.164v7.816l5.062-7.816h3.235V144h-3.164v-7.957L40.672 144h-3.164v-12.445zM62.644 144h-9.421v3.281H50.55v-5.976h1.347c.563-.625 1.028-1.602 1.395-2.93s.586-3.602.656-6.82h10.043v9.75h1.336v5.976h-2.684V144zm-1.91-2.695l.012-7.043h-3.984c-.133 3.437-.68 5.785-1.64 7.043h5.612zm14.063-1.266l3.281.551c-.422 1.203-1.09 2.121-2.004 2.754-.906.625-2.043.937-3.41.937-2.164 0-3.766-.707-4.805-2.121-.82-1.133-1.23-2.562-1.23-4.289 0-2.062.539-3.676 1.617-4.84 1.078-1.172 2.442-1.758 4.09-1.758 1.852 0 3.312.614 4.383 1.84 1.07 1.219 1.582 3.09 1.535 5.614h-8.25c.023.976.289 1.738.797 2.285.508.539 1.14.808 1.898.808.516 0 .95-.14 1.301-.422.352-.281.617-.734.797-1.359zm.187-3.328c-.023-.953-.27-1.676-.738-2.168-.469-.5-1.039-.75-1.71-.75-.72 0-1.313.262-1.782.785-.469.524-.7 1.234-.692 2.133h4.922zm5.204.891c0-1.094.269-2.153.808-3.176.54-1.024 1.3-1.805 2.285-2.344.992-.539 2.098-.809 3.317-.809 1.883 0 3.425.614 4.629 1.84 1.203 1.219 1.804 2.762 1.804 4.629 0 1.883-.61 3.446-1.828 4.688-1.21 1.234-2.738 1.851-4.582 1.851a7.27 7.27 0 01-3.27-.773 5.324 5.324 0 01-2.355-2.262c-.539-1-.808-2.215-.808-3.644zm3.374.175c0 1.235.294 2.18.88 2.836.585.657 1.308.985 2.167.985.86 0 1.579-.328 2.157-.985.586-.656.878-1.609.878-2.859 0-1.219-.292-2.156-.878-2.813-.579-.656-1.297-.984-2.157-.984-.859 0-1.582.328-2.168.984-.585.657-.879 1.602-.879 2.836zm1.771-104.513c5.186 2.994 5.186 10.478 0 13.472l-36.666 21.17C43.48 70.898 37 67.155 37 61.168V18.831c0-5.988 6.481-9.73 11.667-6.736l36.666 21.17z"/></svg>