<svg xmlns="http://www.w3.org/2000/svg" width="40" height="40"><path fill="#885DA9" d="M37.821 8.832c-.705-2.425-2.102-4.34-4.147-5.696-2.582-1.715-5.551-2.32-8.115-2.69-3.548-.51-6.761-.581-9.826-.221-2.87.34-5.033.88-7.004 1.753-3.865 1.712-6.186 4.48-6.895 8.226a49.381 49.381 0 00-.712 5.034c-.31 3.628-.029 6.838.86 9.813.868 2.901 2.38 4.973 4.627 6.335.572.346 1.305.598 2.014.839.402.136.794.268 1.115.414.296.133.296.157.292.394-.024 2.062 0 6.104 0 6.104l.007.863h1.609l.26-.245c.173-.156 4.159-3.865 5.58-5.36l.194-.207c.243-.271.243-.271.494-.275a178.5 178.5 0 005.826-.21c2.36-.123 5.092-.344 7.667-1.376 2.356-.948 4.077-2.452 5.11-4.47 1.08-2.106 1.718-4.385 1.958-6.97.423-4.545.123-8.488-.914-12.055zm-8.485 17.673c-.593.927-1.474 1.573-2.515 1.99-.762.306-1.538.242-2.289-.064-6.288-2.565-11.222-6.603-14.48-12.412-.674-1.195-1.14-2.5-1.676-3.763-.11-.258-.102-.564-.151-.85.045-2.04 1.671-3.192 3.315-3.539.627-.135 1.185.079 1.65.51a13.949 13.949 0 013.08 4.1c.334.676.182 1.273-.389 1.776-.12.105-.243.2-.374.296-1.305.944-1.495 1.66-.8 3.084 1.185 2.422 3.153 4.049 5.695 5.058.67.264 1.302.132 1.813-.391.07-.068.148-.136.198-.217 1.001-1.61 2.458-1.45 3.802-.534.881.605 1.738 1.243 2.61 1.858 1.329.941 1.318 1.824.51 3.098zm-8.341-16.07c-.296 0-.593.024-.885.072a.902.902 0 01-1.04-.717c-.082-.472.25-.92.743-.999a7.228 7.228 0 011.182-.095c3.911 0 7.092 3.064 7.092 6.83 0 .385-.031.769-.098 1.139a.894.894 0 01-1.04.713c-.491-.078-.823-.526-.741-.999.049-.278.074-.563.074-.852 0-2.806-2.374-5.092-5.287-5.092zm4.384 5.218c0 .479-.406.87-.903.87s-.903-.391-.903-.87c0-1.437-1.217-2.609-2.709-2.609-.497 0-.902-.39-.902-.87 0-.479.405-.87.902-.87 2.49 0 4.515 1.95 4.515 4.349zm5.156 1.932a.897.897 0 01-.882.676 1.01 1.01 0 01-.2-.02c-.488-.109-.79-.574-.682-1.043.13-.554.198-1.128.198-1.705 0-4.226-3.573-7.666-7.96-7.666-.6 0-1.196.064-1.77.19a.9.9 0 01-1.08-.656c-.112-.468.194-.934.681-1.04a10.047 10.047 0 012.17-.233c5.384 0 9.765 4.218 9.765 9.405 0 .706-.081 1.41-.24 2.092z"/></svg>