<svg xmlns="http://www.w3.org/2000/svg" width="40" height="40"><g fill="none" fill-rule="evenodd"><path fill="#FFF" d="M10.947 36.67l.16.084a18.982 18.982 0 008.909 2.219c10.463 0 18.98-8.516 18.984-18.981a18.84 18.84 0 00-5.557-13.424A18.87 18.87 0 0020.016 1C9.549 1 1.03 9.515 1.027 19.98c0 3.261.84 6.478 2.432 9.31l.094.168-.042.187-2.028 8.985 9.464-1.96z"/><path fill="#CFD8DC" fill-rule="nonzero" d="M10.947 36.67l.16.084a18.982 18.982 0 008.909 2.219c10.463 0 18.98-8.516 18.984-18.981a18.84 18.84 0 00-5.557-13.424A18.87 18.87 0 0020.016 1C9.549 1 1.03 9.515 1.027 19.98c0 3.261.84 6.478 2.432 9.31l.094.168-.042.187-2.028 8.985 9.464-1.96zM1.74 39.595a.974.974 0 01-.26.037c-.264 0-.512-.105-.715-.3a.994.994 0 01-.254-.943l1.982-8.779a20.04 20.04 0 01-2.467-9.63C.031 8.961 8.997 0 20.016 0A19.87 19.87 0 0134.15 5.861 19.84 19.84 0 0140 19.992c-.004 11.018-8.97 19.98-19.984 19.98-3.213 0-6.386-.775-9.22-2.25l-9.055 1.874z"/><path fill="#40C351" fill-rule="nonzero" d="M31.176 8.832A15.676 15.676 0 0020.02 4.207c-8.704 0-15.786 7.074-15.79 15.773 0 2.98.836 5.883 2.415 8.395l.375.598-1.594 5.82 5.972-1.566.579.343a15.734 15.734 0 008.03 2.2h.009c8.695 0 15.773-7.079 15.777-15.778a15.66 15.66 0 00-4.617-11.16z"/><path fill="#FFF" d="M15.27 12.047c-.356-.793-.73-.809-1.07-.82-.278-.012-.595-.012-.91-.012-.313 0-.83.117-1.263.594-.437.472-1.664 1.62-1.664 3.957 0 2.332 1.703 4.59 1.938 4.906.238.312 3.285 5.258 8.105 7.16 4.008 1.578 4.824 1.266 5.692 1.188.87-.082 2.808-1.149 3.203-2.258.394-1.106.394-2.055.277-2.254-.117-.2-.433-.317-.91-.555-.473-.238-2.805-1.383-3.242-1.543-.434-.156-.75-.234-1.067.238-.316.473-1.226 1.543-1.504 1.86-.277.316-.55.355-1.027.12-.473-.237-2-.737-3.812-2.355-1.41-1.257-2.364-2.808-2.641-3.285-.277-.472-.031-.73.207-.968.215-.211.477-.555.715-.832.234-.278.312-.473.473-.79.156-.316.078-.593-.04-.832-.117-.238-1.039-2.582-1.46-3.52z"/></g></svg>