<svg xmlns="http://www.w3.org/2000/svg" width="40" height="40"><defs><linearGradient id="a" x1="50%" x2="50%" y1="0%" y2="99.635%"><stop offset="0%" stop-color="#42BCE8"/><stop offset="100%" stop-color="#23A7DC"/></linearGradient></defs><g fill="none"><circle cx="20" cy="20" r="20" fill="url(#a)"/><path fill="#FFF" d="M30.176 10.811l-3.817 19.492s-.534 1.352-2.002.703l-8.809-6.84-3.203-1.568-5.392-1.838s-.828-.297-.908-.946c-.08-.649.934-1 .934-1l21.436-8.516c-.001-.001 1.761-.785 1.761.513z"/><path fill="#D2E5F1" d="M14.87 30.083s-.257-.024-.578-1.052c-.32-1.027-1.949-6.434-1.949-6.434L25.29 14.27s.747-.46.721 0c0 0 .133.081-.267.46s-10.171 9.273-10.171 9.273"/><path fill="#B5CFE4" d="M18.925 26.788l-3.484 3.217s-.272.209-.57.078l.667-5.976"/></g></svg>