<svg width="24" height="24" fill="none" xmlns="http://www.w3.org/2000/svg"><path d="M13.341 3A5.99 5.99 0 0013 5H9.5a6.5 6.5 0 000 13h5.106l.204.097c.953.454 1.88 1.038 2.78 1.75.076-.887.203-1.728.38-2.523l.08-.365.302-.223a6.488 6.488 0 002.596-6.06 5.99 5.99 0 001.85-1.03A8.53 8.53 0 0123 11.5a8.485 8.485 0 01-3.151 6.607c-.12.604-.209 1.242-.267 1.913a2 2 0 01-3.233 1.396 12.797 12.797 0 00-2.2-1.416H9.5a8.5 8.5 0 010-17h3.841z" fill="#000" fill-opacity=".2"/><path d="M19 9a4 4 0 100-8 4 4 0 000 8z" fill="#00B4F0"/></svg>