<svg width="24" height="24" fill="none" xmlns="http://www.w3.org/2000/svg"><path d="M15.758 19.41a2.5 2.5 0 01-4.319 2.493l-.674.39c-1.846 1.065-4.267.04-4.475-1.913-.2-1.669-1.253-4.212-3.167-7.57A6 6 0 014.82 4.976a2.25 2.25 0 113.66-2.081 6 6 0 014.846.16 5.991 5.991 0 00-.317 2.124 4 4 0 00-4.289-.182L6.336 6.374a4 4 0 00-1.475 5.445c2.036 3.572 3.176 6.326 3.416 8.336.048.45.834.782 1.488.405l9.526-5.5c.66-.381.77-1.23.383-1.498-.865-.647-1.79-1.63-2.782-2.95a5.987 5.987 0 002.87.335c.382.408.741.739 1.077.99 1.652 1.135 1.31 3.783-.548 4.855l-4.533 2.617z" fill="#000" fill-opacity=".2"/><path d="M19 9a4 4 0 100-8 4 4 0 000 8z" fill="#00B4F0"/></svg>