<?xml version="1.0" encoding="UTF-8"?><!DOCTYPE svg PUBLIC "-//W3C//DTD SVG 1.1//EN" "http://www.w3.org/Graphics/SVG/1.1/DTD/svg11.dtd"><svg xmlns="http://www.w3.org/2000/svg" xmlns:xlink="http://www.w3.org/1999/xlink"><symbol id="facebook_desktop" viewBox="0 0 256 60">
<rect width="256" height="60" rx="30" fill="#1F3B74"/>
<path d="M76.4414 23.1152H85.1689V25.2773H79.043V36H76.4414V23.1152ZM85.0371 31.2012C85.0371 30.3809 85.2393 29.5869 85.6436 28.8193C86.0479 28.0518 86.6191 27.4658 87.3574 27.0615C88.1016 26.6572 88.9307 26.4551 89.8447 26.4551C91.2568 26.4551 92.4141 26.915 93.3164 27.835C94.2188 28.749 94.6699 29.9062 94.6699 31.3066C94.6699 32.7188 94.2129 33.8906 93.2988 34.8223C92.3906 35.748 91.2451 36.2109 89.8623 36.2109C89.0068 36.2109 88.1895 36.0176 87.4102 35.6309C86.6367 35.2441 86.0479 34.6787 85.6436 33.9346C85.2393 33.1846 85.0371 32.2734 85.0371 31.2012ZM87.5684 31.333C87.5684 32.2588 87.7881 32.9678 88.2275 33.46C88.667 33.9521 89.209 34.1982 89.8535 34.1982C90.498 34.1982 91.0371 33.9521 91.4707 33.46C91.9102 32.9678 92.1299 32.2529 92.1299 31.3154C92.1299 30.4014 91.9102 29.6982 91.4707 29.2061C91.0371 28.7139 90.498 28.4678 89.8535 28.4678C89.209 28.4678 88.667 28.7139 88.2275 29.2061C87.7881 29.6982 87.5684 30.4072 87.5684 31.333ZM96.8232 26.666H105.094V36H102.633V28.6699H99.2666V32.8623C99.2666 33.9287 99.1436 34.6787 98.8975 35.1123C98.6514 35.54 98.3789 35.8213 98.0801 35.9561C97.7812 36.0908 97.3008 36.1582 96.6387 36.1582C96.2461 36.1582 95.7275 36.1055 95.083 36V34.1807C95.1357 34.1807 95.2734 34.1865 95.4961 34.1982C95.7539 34.2158 95.9531 34.2246 96.0938 34.2246C96.4277 34.2246 96.6328 34.1162 96.709 33.8994C96.7852 33.6768 96.8232 33.0645 96.8232 32.0625V26.666ZM106.781 31.2012C106.781 30.3809 106.983 29.5869 107.388 28.8193C107.792 28.0518 108.363 27.4658 109.102 27.0615C109.846 26.6572 110.675 26.4551 111.589 26.4551C113.001 26.4551 114.158 26.915 115.061 27.835C115.963 28.749 116.414 29.9062 116.414 31.3066C116.414 32.7188 115.957 33.8906 115.043 34.8223C114.135 35.748 112.989 36.2109 111.606 36.2109C110.751 36.2109 109.934 36.0176 109.154 35.6309C108.381 35.2441 107.792 34.6787 107.388 33.9346C106.983 33.1846 106.781 32.2734 106.781 31.2012ZM109.312 31.333C109.312 32.2588 109.532 32.9678 109.972 33.46C110.411 33.9521 110.953 34.1982 111.598 34.1982C112.242 34.1982 112.781 33.9521 113.215 33.46C113.654 32.9678 113.874 32.2529 113.874 31.3154C113.874 30.4014 113.654 29.6982 113.215 29.2061C112.781 28.7139 112.242 28.4678 111.598 28.4678C110.953 28.4678 110.411 28.7139 109.972 29.2061C109.532 29.6982 109.312 30.4072 109.312 31.333ZM126.249 29.4258L123.814 29.8652C123.732 29.3789 123.545 29.0127 123.252 28.7666C122.965 28.5205 122.59 28.3975 122.127 28.3975C121.512 28.3975 121.02 28.6113 120.65 29.0391C120.287 29.4609 120.105 30.1699 120.105 31.166C120.105 32.2734 120.29 33.0557 120.659 33.5127C121.034 33.9697 121.535 34.1982 122.162 34.1982C122.631 34.1982 123.015 34.0664 123.313 33.8027C123.612 33.5332 123.823 33.0732 123.946 32.4229L126.372 32.8359C126.12 33.9492 125.637 34.79 124.922 35.3584C124.207 35.9268 123.249 36.2109 122.048 36.2109C120.683 36.2109 119.593 35.7803 118.778 34.9189C117.97 34.0576 117.565 32.8652 117.565 31.3418C117.565 29.8008 117.973 28.6025 118.787 27.7471C119.602 26.8857 120.703 26.4551 122.092 26.4551C123.229 26.4551 124.131 26.7012 124.799 27.1934C125.473 27.6797 125.956 28.4238 126.249 29.4258ZM127.559 31.2012C127.559 30.3809 127.761 29.5869 128.165 28.8193C128.569 28.0518 129.141 27.4658 129.879 27.0615C130.623 26.6572 131.452 26.4551 132.366 26.4551C133.778 26.4551 134.936 26.915 135.838 27.835C136.74 28.749 137.191 29.9062 137.191 31.3066C137.191 32.7188 136.734 33.8906 135.82 34.8223C134.912 35.748 133.767 36.2109 132.384 36.2109C131.528 36.2109 130.711 36.0176 129.932 35.6309C129.158 35.2441 128.569 34.6787 128.165 33.9346C127.761 33.1846 127.559 32.2734 127.559 31.2012ZM130.09 31.333C130.09 32.2588 130.31 32.9678 130.749 33.46C131.188 33.9521 131.73 34.1982 132.375 34.1982C133.02 34.1982 133.559 33.9521 133.992 33.46C134.432 32.9678 134.651 32.2529 134.651 31.3154C134.651 30.4014 134.432 29.6982 133.992 29.2061C133.559 28.7139 133.02 28.4678 132.375 28.4678C131.73 28.4678 131.188 28.7139 130.749 29.2061C130.31 29.6982 130.09 30.4072 130.09 31.333ZM139.16 26.666H144.565C145.673 26.666 146.502 26.8682 147.053 27.2725C147.604 27.6768 147.879 28.2861 147.879 29.1006C147.879 29.6221 147.727 30.0762 147.422 30.4629C147.123 30.8496 146.745 31.1074 146.288 31.2363C146.933 31.3945 147.413 31.6904 147.729 32.124C148.046 32.5576 148.204 33.0322 148.204 33.5479C148.204 34.2744 147.938 34.8662 147.404 35.3232C146.871 35.7744 146.083 36 145.04 36H139.16V26.666ZM141.647 30.542H143.238C144.006 30.542 144.56 30.4453 144.899 30.252C145.245 30.0586 145.418 29.7539 145.418 29.3379C145.418 28.9453 145.257 28.667 144.935 28.5029C144.618 28.333 144.053 28.248 143.238 28.248H141.647V30.542ZM141.647 34.418H143.599C144.302 34.418 144.814 34.333 145.137 34.1631C145.459 33.9932 145.62 33.6885 145.62 33.249C145.62 32.792 145.436 32.4785 145.066 32.3086C144.697 32.1328 143.979 32.0449 142.913 32.0449H141.647V34.418ZM151.808 29.5137L149.566 29.1094C149.818 28.207 150.252 27.5391 150.867 27.1055C151.482 26.6719 152.396 26.4551 153.609 26.4551C154.711 26.4551 155.531 26.5869 156.07 26.8506C156.609 27.1084 156.987 27.4395 157.204 27.8438C157.427 28.2422 157.538 28.9775 157.538 30.0498L157.512 32.9326C157.512 33.7529 157.55 34.3594 157.626 34.752C157.708 35.1387 157.857 35.5547 158.074 36H155.631C155.566 35.8359 155.487 35.5928 155.394 35.2705C155.353 35.124 155.323 35.0273 155.306 34.9805C154.884 35.3906 154.433 35.6982 153.952 35.9033C153.472 36.1084 152.959 36.2109 152.414 36.2109C151.453 36.2109 150.694 35.9502 150.138 35.4287C149.587 34.9072 149.312 34.248 149.312 33.4512C149.312 32.9238 149.438 32.4551 149.689 32.0449C149.941 31.6289 150.293 31.3125 150.744 31.0957C151.201 30.873 151.857 30.6797 152.713 30.5156C153.867 30.2988 154.667 30.0967 155.112 29.9092V29.6631C155.112 29.1885 154.995 28.8516 154.761 28.6523C154.526 28.4473 154.084 28.3447 153.434 28.3447C152.994 28.3447 152.651 28.4326 152.405 28.6084C152.159 28.7783 151.96 29.0801 151.808 29.5137ZM155.112 31.5176C154.796 31.623 154.295 31.749 153.609 31.8955C152.924 32.042 152.476 32.1855 152.265 32.3262C151.942 32.5547 151.781 32.8447 151.781 33.1963C151.781 33.542 151.91 33.8408 152.168 34.0928C152.426 34.3447 152.754 34.4707 153.152 34.4707C153.598 34.4707 154.022 34.3242 154.427 34.0312C154.726 33.8086 154.922 33.5361 155.016 33.2139C155.08 33.0029 155.112 32.6016 155.112 32.0098V31.5176ZM158.874 26.666H167.32V28.6611H164.332V36H161.862V28.6611H158.874V26.666ZM168.858 26.666H171.328V30.542H173.807C174.779 30.542 175.526 30.6123 176.048 30.7529C176.569 30.8936 177.003 31.1982 177.349 31.667C177.694 32.1299 177.867 32.6689 177.867 33.2842C177.867 34.1865 177.557 34.8662 176.936 35.3232C176.32 35.7744 175.395 36 174.158 36H168.858V26.666ZM171.328 34.4355H173.631C174.352 34.4355 174.812 34.3184 175.011 34.084C175.216 33.8496 175.318 33.5713 175.318 33.249C175.318 32.7979 175.143 32.4873 174.791 32.3174C174.445 32.1475 173.827 32.0625 172.937 32.0625H171.328V34.4355ZM184.925 36V23.1152H193.758V25.2949H187.526V28.3447H192.905V30.5244H187.526V36H184.925ZM195.92 23.1152H201.07C202.09 23.1152 202.849 23.1592 203.347 23.2471C203.851 23.3291 204.299 23.5049 204.691 23.7744C205.09 24.0439 205.421 24.4043 205.685 24.8555C205.948 25.3008 206.08 25.8018 206.08 26.3584C206.08 26.9619 205.916 27.5156 205.588 28.0195C205.266 28.5234 204.826 28.9014 204.27 29.1533C205.055 29.3818 205.658 29.7715 206.08 30.3223C206.502 30.873 206.713 31.5205 206.713 32.2646C206.713 32.8506 206.575 33.4219 206.3 33.9785C206.03 34.5293 205.658 34.9717 205.184 35.3057C204.715 35.6338 204.135 35.8359 203.443 35.9121C203.01 35.959 201.964 35.9883 200.306 36H195.92V23.1152ZM198.521 25.2598V28.2393H200.227C201.24 28.2393 201.87 28.2246 202.116 28.1953C202.562 28.1426 202.91 27.9902 203.162 27.7383C203.42 27.4805 203.549 27.1436 203.549 26.7275C203.549 26.3291 203.438 26.0068 203.215 25.7607C202.998 25.5088 202.673 25.3564 202.239 25.3037C201.981 25.2744 201.24 25.2598 200.016 25.2598H198.521ZM198.521 30.3838V33.8291H200.93C201.867 33.8291 202.462 33.8027 202.714 33.75C203.101 33.6797 203.414 33.5098 203.654 33.2402C203.9 32.9648 204.023 32.5986 204.023 32.1416C204.023 31.7549 203.93 31.4268 203.742 31.1572C203.555 30.8877 203.282 30.6914 202.925 30.5684C202.573 30.4453 201.806 30.3838 200.622 30.3838H198.521Z" fill="white"/>
<path d="M0 30C0 13.4315 13.4315 0 30 0C46.5685 0 60 13.4315 60 30C60 46.5685 46.5685 60 30 60C13.4315 60 0 46.5685 0 30Z" fill="#3B5998"/>
<path d="M33.1269 47.6393V31.3178H37.6324L38.2295 25.6933H33.1269L33.1346 22.8781C33.1346 21.4112 33.274 20.6251 35.381 20.6251H38.1976V15H33.6915C28.2789 15 26.3738 17.7285 26.3738 22.317V25.6939H23V31.3184H26.3738V47.6393H33.1269Z" fill="white"/>
</symbol><symbol id="ok_desktop" viewBox="0 0 256 60">
<rect width="256" height="60" rx="30" fill="#D06313"/>
<path d="M76.4414 23.1152H85.1689V25.2773H79.043V36H76.4414V23.1152ZM85.0371 31.2012C85.0371 30.3809 85.2393 29.5869 85.6436 28.8193C86.0479 28.0518 86.6191 27.4658 87.3574 27.0615C88.1016 26.6572 88.9307 26.4551 89.8447 26.4551C91.2568 26.4551 92.4141 26.915 93.3164 27.835C94.2188 28.749 94.6699 29.9062 94.6699 31.3066C94.6699 32.7188 94.2129 33.8906 93.2988 34.8223C92.3906 35.748 91.2451 36.2109 89.8623 36.2109C89.0068 36.2109 88.1895 36.0176 87.4102 35.6309C86.6367 35.2441 86.0479 34.6787 85.6436 33.9346C85.2393 33.1846 85.0371 32.2734 85.0371 31.2012ZM87.5684 31.333C87.5684 32.2588 87.7881 32.9678 88.2275 33.46C88.667 33.9521 89.209 34.1982 89.8535 34.1982C90.498 34.1982 91.0371 33.9521 91.4707 33.46C91.9102 32.9678 92.1299 32.2529 92.1299 31.3154C92.1299 30.4014 91.9102 29.6982 91.4707 29.2061C91.0371 28.7139 90.498 28.4678 89.8535 28.4678C89.209 28.4678 88.667 28.7139 88.2275 29.2061C87.7881 29.6982 87.5684 30.4072 87.5684 31.333ZM96.8232 26.666H105.094V36H102.633V28.6699H99.2666V32.8623C99.2666 33.9287 99.1436 34.6787 98.8975 35.1123C98.6514 35.54 98.3789 35.8213 98.0801 35.9561C97.7812 36.0908 97.3008 36.1582 96.6387 36.1582C96.2461 36.1582 95.7275 36.1055 95.083 36V34.1807C95.1357 34.1807 95.2734 34.1865 95.4961 34.1982C95.7539 34.2158 95.9531 34.2246 96.0938 34.2246C96.4277 34.2246 96.6328 34.1162 96.709 33.8994C96.7852 33.6768 96.8232 33.0645 96.8232 32.0625V26.666ZM106.781 31.2012C106.781 30.3809 106.983 29.5869 107.388 28.8193C107.792 28.0518 108.363 27.4658 109.102 27.0615C109.846 26.6572 110.675 26.4551 111.589 26.4551C113.001 26.4551 114.158 26.915 115.061 27.835C115.963 28.749 116.414 29.9062 116.414 31.3066C116.414 32.7188 115.957 33.8906 115.043 34.8223C114.135 35.748 112.989 36.2109 111.606 36.2109C110.751 36.2109 109.934 36.0176 109.154 35.6309C108.381 35.2441 107.792 34.6787 107.388 33.9346C106.983 33.1846 106.781 32.2734 106.781 31.2012ZM109.312 31.333C109.312 32.2588 109.532 32.9678 109.972 33.46C110.411 33.9521 110.953 34.1982 111.598 34.1982C112.242 34.1982 112.781 33.9521 113.215 33.46C113.654 32.9678 113.874 32.2529 113.874 31.3154C113.874 30.4014 113.654 29.6982 113.215 29.2061C112.781 28.7139 112.242 28.4678 111.598 28.4678C110.953 28.4678 110.411 28.7139 109.972 29.2061C109.532 29.6982 109.312 30.4072 109.312 31.333ZM126.249 29.4258L123.814 29.8652C123.732 29.3789 123.545 29.0127 123.252 28.7666C122.965 28.5205 122.59 28.3975 122.127 28.3975C121.512 28.3975 121.02 28.6113 120.65 29.0391C120.287 29.4609 120.105 30.1699 120.105 31.166C120.105 32.2734 120.29 33.0557 120.659 33.5127C121.034 33.9697 121.535 34.1982 122.162 34.1982C122.631 34.1982 123.015 34.0664 123.313 33.8027C123.612 33.5332 123.823 33.0732 123.946 32.4229L126.372 32.8359C126.12 33.9492 125.637 34.79 124.922 35.3584C124.207 35.9268 123.249 36.2109 122.048 36.2109C120.683 36.2109 119.593 35.7803 118.778 34.9189C117.97 34.0576 117.565 32.8652 117.565 31.3418C117.565 29.8008 117.973 28.6025 118.787 27.7471C119.602 26.8857 120.703 26.4551 122.092 26.4551C123.229 26.4551 124.131 26.7012 124.799 27.1934C125.473 27.6797 125.956 28.4238 126.249 29.4258ZM127.559 31.2012C127.559 30.3809 127.761 29.5869 128.165 28.8193C128.569 28.0518 129.141 27.4658 129.879 27.0615C130.623 26.6572 131.452 26.4551 132.366 26.4551C133.778 26.4551 134.936 26.915 135.838 27.835C136.74 28.749 137.191 29.9062 137.191 31.3066C137.191 32.7188 136.734 33.8906 135.82 34.8223C134.912 35.748 133.767 36.2109 132.384 36.2109C131.528 36.2109 130.711 36.0176 129.932 35.6309C129.158 35.2441 128.569 34.6787 128.165 33.9346C127.761 33.1846 127.559 32.2734 127.559 31.2012ZM130.09 31.333C130.09 32.2588 130.31 32.9678 130.749 33.46C131.188 33.9521 131.73 34.1982 132.375 34.1982C133.02 34.1982 133.559 33.9521 133.992 33.46C134.432 32.9678 134.651 32.2529 134.651 31.3154C134.651 30.4014 134.432 29.6982 133.992 29.2061C133.559 28.7139 133.02 28.4678 132.375 28.4678C131.73 28.4678 131.188 28.7139 130.749 29.2061C130.31 29.6982 130.09 30.4072 130.09 31.333ZM139.16 26.666H144.565C145.673 26.666 146.502 26.8682 147.053 27.2725C147.604 27.6768 147.879 28.2861 147.879 29.1006C147.879 29.6221 147.727 30.0762 147.422 30.4629C147.123 30.8496 146.745 31.1074 146.288 31.2363C146.933 31.3945 147.413 31.6904 147.729 32.124C148.046 32.5576 148.204 33.0322 148.204 33.5479C148.204 34.2744 147.938 34.8662 147.404 35.3232C146.871 35.7744 146.083 36 145.04 36H139.16V26.666ZM141.647 30.542H143.238C144.006 30.542 144.56 30.4453 144.899 30.252C145.245 30.0586 145.418 29.7539 145.418 29.3379C145.418 28.9453 145.257 28.667 144.935 28.5029C144.618 28.333 144.053 28.248 143.238 28.248H141.647V30.542ZM141.647 34.418H143.599C144.302 34.418 144.814 34.333 145.137 34.1631C145.459 33.9932 145.62 33.6885 145.62 33.249C145.62 32.792 145.436 32.4785 145.066 32.3086C144.697 32.1328 143.979 32.0449 142.913 32.0449H141.647V34.418ZM151.808 29.5137L149.566 29.1094C149.818 28.207 150.252 27.5391 150.867 27.1055C151.482 26.6719 152.396 26.4551 153.609 26.4551C154.711 26.4551 155.531 26.5869 156.07 26.8506C156.609 27.1084 156.987 27.4395 157.204 27.8438C157.427 28.2422 157.538 28.9775 157.538 30.0498L157.512 32.9326C157.512 33.7529 157.55 34.3594 157.626 34.752C157.708 35.1387 157.857 35.5547 158.074 36H155.631C155.566 35.8359 155.487 35.5928 155.394 35.2705C155.353 35.124 155.323 35.0273 155.306 34.9805C154.884 35.3906 154.433 35.6982 153.952 35.9033C153.472 36.1084 152.959 36.2109 152.414 36.2109C151.453 36.2109 150.694 35.9502 150.138 35.4287C149.587 34.9072 149.312 34.248 149.312 33.4512C149.312 32.9238 149.438 32.4551 149.689 32.0449C149.941 31.6289 150.293 31.3125 150.744 31.0957C151.201 30.873 151.857 30.6797 152.713 30.5156C153.867 30.2988 154.667 30.0967 155.112 29.9092V29.6631C155.112 29.1885 154.995 28.8516 154.761 28.6523C154.526 28.4473 154.084 28.3447 153.434 28.3447C152.994 28.3447 152.651 28.4326 152.405 28.6084C152.159 28.7783 151.96 29.0801 151.808 29.5137ZM155.112 31.5176C154.796 31.623 154.295 31.749 153.609 31.8955C152.924 32.042 152.476 32.1855 152.265 32.3262C151.942 32.5547 151.781 32.8447 151.781 33.1963C151.781 33.542 151.91 33.8408 152.168 34.0928C152.426 34.3447 152.754 34.4707 153.152 34.4707C153.598 34.4707 154.022 34.3242 154.427 34.0312C154.726 33.8086 154.922 33.5361 155.016 33.2139C155.08 33.0029 155.112 32.6016 155.112 32.0098V31.5176ZM158.874 26.666H167.32V28.6611H164.332V36H161.862V28.6611H158.874V26.666ZM168.858 26.666H171.328V30.542H173.807C174.779 30.542 175.526 30.6123 176.048 30.7529C176.569 30.8936 177.003 31.1982 177.349 31.667C177.694 32.1299 177.867 32.6689 177.867 33.2842C177.867 34.1865 177.557 34.8662 176.936 35.3232C176.32 35.7744 175.395 36 174.158 36H168.858V26.666ZM171.328 34.4355H173.631C174.352 34.4355 174.812 34.3184 175.011 34.084C175.216 33.8496 175.318 33.5713 175.318 33.249C175.318 32.7979 175.143 32.4873 174.791 32.3174C174.445 32.1475 173.827 32.0625 172.937 32.0625H171.328V34.4355ZM184.38 29.6367C184.38 28.3242 184.576 27.2227 184.969 26.332C185.262 25.6758 185.66 25.0869 186.164 24.5654C186.674 24.0439 187.23 23.6572 187.834 23.4053C188.637 23.0654 189.562 22.8955 190.611 22.8955C192.51 22.8955 194.027 23.4844 195.164 24.6621C196.307 25.8398 196.878 27.4775 196.878 29.5752C196.878 31.6553 196.312 33.2842 195.182 34.4619C194.051 35.6338 192.539 36.2197 190.646 36.2197C188.73 36.2197 187.207 35.6367 186.076 34.4707C184.945 33.2988 184.38 31.6875 184.38 29.6367ZM187.061 29.5488C187.061 31.0078 187.397 32.1152 188.071 32.8711C188.745 33.6211 189.601 33.9961 190.638 33.9961C191.675 33.9961 192.524 33.624 193.187 32.8799C193.854 32.1299 194.188 31.0078 194.188 29.5137C194.188 28.0371 193.863 26.9355 193.213 26.209C192.568 25.4824 191.71 25.1191 190.638 25.1191C189.565 25.1191 188.701 25.4883 188.045 26.2266C187.389 26.959 187.061 28.0664 187.061 29.5488ZM198.952 36V23.1152H201.554V28.8369L206.81 23.1152H210.308L205.456 28.1338L210.571 36H207.205L203.663 29.9531L201.554 32.1064V36H198.952Z" fill="white"/>
<path d="M0 30C0 13.4315 13.4315 0 30 0C46.5685 0 60 13.4315 60 30C60 46.5685 46.5685 60 30 60C13.4315 60 0 46.5685 0 30Z" fill="#F68634"/>
<path d="M33.3003 22.7422C33.3003 20.9746 31.8108 19.5371 29.9795 19.5371C28.1499 19.5371 26.659 20.9746 26.659 22.7422C26.659 24.5083 28.1499 25.9463 29.9795 25.9463C31.8108 25.9463 33.3003 24.5083 33.3003 22.7422ZM37.9995 22.7422C37.9995 27.0098 34.4036 30.4814 29.9798 30.4814C25.5567 30.4814 21.9597 27.0098 21.9597 22.7422C21.9597 18.4727 25.5567 15 29.9798 15C34.4036 15 37.9995 18.4727 37.9995 22.7422ZM37.9021 34.939C36.4519 35.8179 34.8775 36.4414 33.2449 36.8003L37.7283 41.1289C38.6467 42.0132 38.6467 43.4502 37.7283 44.3359C36.8108 45.2217 35.3238 45.2217 34.4072 44.3359L29.9993 40.0825L25.595 44.3359C25.1358 44.7783 24.534 44.9995 23.9324 44.9995C23.3316 44.9995 22.7307 44.7783 22.2715 44.3359C21.354 43.4502 21.354 42.0142 22.2705 41.1289L26.7544 36.8003C25.1218 36.4414 23.5474 35.8169 22.0974 34.939C21 34.271 20.6702 32.8716 21.3616 31.8115C22.0513 30.7495 23.5015 30.4302 24.6008 31.0981C27.884 33.0918 32.1135 33.0923 35.3987 31.0981C36.4981 30.4302 37.9475 30.7495 38.6387 31.8115C39.3301 32.8706 38.9995 34.271 37.9021 34.939Z" fill="white"/>
</symbol><symbol id="videoplayer_button" viewBox="0 0 115 152">
  <path d="M12.8164 105.684L16.1797 106.75C15.6641 108.625 14.8047 110.02 13.6016 110.934C12.4062 111.84 10.8867 112.293 9.04297 112.293C6.76172 112.293 4.88672 111.516 3.41797 109.961C1.94922 108.398 1.21484 106.266 1.21484 103.562C1.21484 100.703 1.95312 98.4844 3.42969 96.9062C4.90625 95.3203 6.84766 94.5273 9.25391 94.5273C11.3555 94.5273 13.0625 95.1484 14.375 96.3906C15.1562 97.125 15.7422 98.1797 16.1328 99.5547L12.6992 100.375C12.4961 99.4844 12.0703 98.7812 11.4219 98.2656C10.7812 97.75 10 97.4922 9.07812 97.4922C7.80469 97.4922 6.76953 97.9492 5.97266 98.8633C5.18359 99.7773 4.78906 101.258 4.78906 103.305C4.78906 105.477 5.17969 107.023 5.96094 107.945C6.74219 108.867 7.75781 109.328 9.00781 109.328C9.92969 109.328 10.7227 109.035 11.3867 108.449C12.0508 107.863 12.5273 106.941 12.8164 105.684ZM19.2383 99.5547H23.3164L26.4102 108.227L29.5273 99.5547H33.5938V112H30.793V103.809L27.7578 112H24.9453L22.0508 103.809V112H19.2383V99.5547ZM35.8203 105.602C35.8203 104.508 36.0898 103.449 36.6289 102.426C37.168 101.402 37.9297 100.621 38.9141 100.082C39.9062 99.543 41.0117 99.2734 42.2305 99.2734C44.1133 99.2734 45.6562 99.8867 46.8594 101.113C48.0625 102.332 48.6641 103.875 48.6641 105.742C48.6641 107.625 48.0547 109.188 46.8359 110.43C45.625 111.664 44.0977 112.281 42.2539 112.281C41.1133 112.281 40.0234 112.023 38.9844 111.508C37.9531 110.992 37.168 110.238 36.6289 109.246C36.0898 108.246 35.8203 107.031 35.8203 105.602ZM39.1953 105.777C39.1953 107.012 39.4883 107.957 40.0742 108.613C40.6602 109.27 41.3828 109.598 42.2422 109.598C43.1016 109.598 43.8203 109.27 44.3984 108.613C44.9844 107.957 45.2773 107.004 45.2773 105.754C45.2773 104.535 44.9844 103.598 44.3984 102.941C43.8203 102.285 43.1016 101.957 42.2422 101.957C41.3828 101.957 40.6602 102.285 40.0742 102.941C39.4883 103.598 39.1953 104.543 39.1953 105.777ZM49.168 99.5547H60.4297V102.215H56.4453V112H53.1523V102.215H49.168V99.5547ZM62.3164 99.5547H65.3867V101.383C65.7852 100.758 66.3242 100.25 67.0039 99.8594C67.6836 99.4688 68.4375 99.2734 69.2656 99.2734C70.7109 99.2734 71.9375 99.8398 72.9453 100.973C73.9531 102.105 74.457 103.684 74.457 105.707C74.457 107.785 73.9492 109.402 72.9336 110.559C71.918 111.707 70.6875 112.281 69.2422 112.281C68.5547 112.281 67.9297 112.145 67.3672 111.871C66.8125 111.598 66.2266 111.129 65.6094 110.465V116.734H62.3164V99.5547ZM65.5742 105.566C65.5742 106.965 65.8516 108 66.4062 108.672C66.9609 109.336 67.6367 109.668 68.4336 109.668C69.1992 109.668 69.8359 109.363 70.3438 108.754C70.8516 108.137 71.1055 107.129 71.1055 105.73C71.1055 104.426 70.8438 103.457 70.3203 102.824C69.7969 102.191 69.1484 101.875 68.375 101.875C67.5703 101.875 66.9023 102.188 66.3711 102.812C65.8398 103.43 65.5742 104.348 65.5742 105.566ZM84.2891 108.039L87.5703 108.59C87.1484 109.793 86.4805 110.711 85.5664 111.344C84.6602 111.969 83.5234 112.281 82.1562 112.281C79.9922 112.281 78.3906 111.574 77.3516 110.16C76.5312 109.027 76.1211 107.598 76.1211 105.871C76.1211 103.809 76.6602 102.195 77.7383 101.031C78.8164 99.8594 80.1797 99.2734 81.8281 99.2734C83.6797 99.2734 85.1406 99.8867 86.2109 101.113C87.2812 102.332 87.793 104.203 87.7461 106.727H79.4961C79.5195 107.703 79.7852 108.465 80.293 109.012C80.8008 109.551 81.4336 109.82 82.1914 109.82C82.707 109.82 83.1406 109.68 83.4922 109.398C83.8438 109.117 84.1094 108.664 84.2891 108.039ZM84.4766 104.711C84.4531 103.758 84.207 103.035 83.7383 102.543C83.2695 102.043 82.6992 101.793 82.0273 101.793C81.3086 101.793 80.7148 102.055 80.2461 102.578C79.7773 103.102 79.5469 103.812 79.5547 104.711H84.4766ZM88.6367 99.5547H99.8984V102.215H95.9141V112H92.6211V102.215H88.6367V99.5547ZM101.949 99.5547H105.242V104.723H108.547C109.844 104.723 110.84 104.816 111.535 105.004C112.23 105.191 112.809 105.598 113.27 106.223C113.73 106.84 113.961 107.559 113.961 108.379C113.961 109.582 113.547 110.488 112.719 111.098C111.898 111.699 110.664 112 109.016 112H101.949V99.5547ZM105.242 109.914H108.312C109.273 109.914 109.887 109.758 110.152 109.445C110.426 109.133 110.562 108.762 110.562 108.332C110.562 107.73 110.328 107.316 109.859 107.09C109.398 106.863 108.574 106.75 107.387 106.75H105.242V109.914ZM22.8594 131.555H30.0664C31.543 131.555 32.6484 131.824 33.3828 132.363C34.1172 132.902 34.4844 133.715 34.4844 134.801C34.4844 135.496 34.2812 136.102 33.875 136.617C33.4766 137.133 32.9727 137.477 32.3633 137.648C33.2227 137.859 33.8633 138.254 34.2852 138.832C34.707 139.41 34.918 140.043 34.918 140.73C34.918 141.699 34.5625 142.488 33.8516 143.098C33.1406 143.699 32.0898 144 30.6992 144H22.8594V131.555ZM26.1758 136.723H28.2969C29.3203 136.723 30.0586 136.594 30.5117 136.336C30.9727 136.078 31.2031 135.672 31.2031 135.117C31.2031 134.594 30.9883 134.223 30.5586 134.004C30.1367 133.777 29.3828 133.664 28.2969 133.664H26.1758V136.723ZM26.1758 141.891H28.7773C29.7148 141.891 30.3984 141.777 30.8281 141.551C31.2578 141.324 31.4727 140.918 31.4727 140.332C31.4727 139.723 31.2266 139.305 30.7344 139.078C30.2422 138.844 29.2852 138.727 27.8633 138.727H26.1758V141.891ZM37.5078 131.555H40.6719V139.371L45.7344 131.555H48.9688V144H45.8047V136.043L40.6719 144H37.5078V131.555ZM62.6445 144H53.2227V147.281H50.5508V141.305H51.8984C52.4609 140.68 52.9258 139.703 53.293 138.375C53.6602 137.047 53.8789 134.773 53.9492 131.555H63.9922V141.305H65.3281V147.281H62.6445V144ZM60.7344 141.305L60.7461 134.262H56.7617C56.6289 137.699 56.082 140.047 55.1211 141.305H60.7344ZM74.7969 140.039L78.0781 140.59C77.6562 141.793 76.9883 142.711 76.0742 143.344C75.168 143.969 74.0312 144.281 72.6641 144.281C70.5 144.281 68.8984 143.574 67.8594 142.16C67.0391 141.027 66.6289 139.598 66.6289 137.871C66.6289 135.809 67.168 134.195 68.2461 133.031C69.3242 131.859 70.6875 131.273 72.3359 131.273C74.1875 131.273 75.6484 131.887 76.7188 133.113C77.7891 134.332 78.3008 136.203 78.2539 138.727H70.0039C70.0273 139.703 70.293 140.465 70.8008 141.012C71.3086 141.551 71.9414 141.82 72.6992 141.82C73.2148 141.82 73.6484 141.68 74 141.398C74.3516 141.117 74.6172 140.664 74.7969 140.039ZM74.9844 136.711C74.9609 135.758 74.7148 135.035 74.2461 134.543C73.7773 134.043 73.207 133.793 72.5352 133.793C71.8164 133.793 71.2227 134.055 70.7539 134.578C70.2852 135.102 70.0547 135.812 70.0625 136.711H74.9844ZM80.1875 137.602C80.1875 136.508 80.457 135.449 80.9961 134.426C81.5352 133.402 82.2969 132.621 83.2812 132.082C84.2734 131.543 85.3789 131.273 86.5977 131.273C88.4805 131.273 90.0234 131.887 91.2266 133.113C92.4297 134.332 93.0312 135.875 93.0312 137.742C93.0312 139.625 92.4219 141.188 91.2031 142.43C89.9922 143.664 88.4648 144.281 86.6211 144.281C85.4805 144.281 84.3906 144.023 83.3516 143.508C82.3203 142.992 81.5352 142.238 80.9961 141.246C80.457 140.246 80.1875 139.031 80.1875 137.602ZM83.5625 137.777C83.5625 139.012 83.8555 139.957 84.4414 140.613C85.0273 141.27 85.75 141.598 86.6094 141.598C87.4688 141.598 88.1875 141.27 88.7656 140.613C89.3516 139.957 89.6445 139.004 89.6445 137.754C89.6445 136.535 89.3516 135.598 88.7656 134.941C88.1875 134.285 87.4688 133.957 86.6094 133.957C85.75 133.957 85.0273 134.285 84.4414 134.941C83.8555 135.598 83.5625 136.543 83.5625 137.777Z"/>
  <path d="M85.3333 33.2642C90.5185 36.2579 90.5185 43.7421 85.3333 46.7358L48.6667 67.9053C43.4815 70.8989 37 67.1569 37 61.1695L37 18.8305C37 12.8432 43.4815 9.10107 48.6667 12.0947L85.3333 33.2642Z"/>
</symbol><symbol id="vk_desktop" viewBox="0 0 256 60">
<rect width="256" height="60" rx="30" fill="#27466A"/>
<path d="M76.4414 23.1152H85.1689V25.2773H79.043V36H76.4414V23.1152ZM85.0371 31.2012C85.0371 30.3809 85.2393 29.5869 85.6436 28.8193C86.0479 28.0518 86.6191 27.4658 87.3574 27.0615C88.1016 26.6572 88.9307 26.4551 89.8447 26.4551C91.2568 26.4551 92.4141 26.915 93.3164 27.835C94.2188 28.749 94.6699 29.9062 94.6699 31.3066C94.6699 32.7188 94.2129 33.8906 93.2988 34.8223C92.3906 35.748 91.2451 36.2109 89.8623 36.2109C89.0068 36.2109 88.1895 36.0176 87.4102 35.6309C86.6367 35.2441 86.0479 34.6787 85.6436 33.9346C85.2393 33.1846 85.0371 32.2734 85.0371 31.2012ZM87.5684 31.333C87.5684 32.2588 87.7881 32.9678 88.2275 33.46C88.667 33.9521 89.209 34.1982 89.8535 34.1982C90.498 34.1982 91.0371 33.9521 91.4707 33.46C91.9102 32.9678 92.1299 32.2529 92.1299 31.3154C92.1299 30.4014 91.9102 29.6982 91.4707 29.2061C91.0371 28.7139 90.498 28.4678 89.8535 28.4678C89.209 28.4678 88.667 28.7139 88.2275 29.2061C87.7881 29.6982 87.5684 30.4072 87.5684 31.333ZM96.8232 26.666H105.094V36H102.633V28.6699H99.2666V32.8623C99.2666 33.9287 99.1436 34.6787 98.8975 35.1123C98.6514 35.54 98.3789 35.8213 98.0801 35.9561C97.7812 36.0908 97.3008 36.1582 96.6387 36.1582C96.2461 36.1582 95.7275 36.1055 95.083 36V34.1807C95.1357 34.1807 95.2734 34.1865 95.4961 34.1982C95.7539 34.2158 95.9531 34.2246 96.0938 34.2246C96.4277 34.2246 96.6328 34.1162 96.709 33.8994C96.7852 33.6768 96.8232 33.0645 96.8232 32.0625V26.666ZM106.781 31.2012C106.781 30.3809 106.983 29.5869 107.388 28.8193C107.792 28.0518 108.363 27.4658 109.102 27.0615C109.846 26.6572 110.675 26.4551 111.589 26.4551C113.001 26.4551 114.158 26.915 115.061 27.835C115.963 28.749 116.414 29.9062 116.414 31.3066C116.414 32.7188 115.957 33.8906 115.043 34.8223C114.135 35.748 112.989 36.2109 111.606 36.2109C110.751 36.2109 109.934 36.0176 109.154 35.6309C108.381 35.2441 107.792 34.6787 107.388 33.9346C106.983 33.1846 106.781 32.2734 106.781 31.2012ZM109.312 31.333C109.312 32.2588 109.532 32.9678 109.972 33.46C110.411 33.9521 110.953 34.1982 111.598 34.1982C112.242 34.1982 112.781 33.9521 113.215 33.46C113.654 32.9678 113.874 32.2529 113.874 31.3154C113.874 30.4014 113.654 29.6982 113.215 29.2061C112.781 28.7139 112.242 28.4678 111.598 28.4678C110.953 28.4678 110.411 28.7139 109.972 29.2061C109.532 29.6982 109.312 30.4072 109.312 31.333ZM126.249 29.4258L123.814 29.8652C123.732 29.3789 123.545 29.0127 123.252 28.7666C122.965 28.5205 122.59 28.3975 122.127 28.3975C121.512 28.3975 121.02 28.6113 120.65 29.0391C120.287 29.4609 120.105 30.1699 120.105 31.166C120.105 32.2734 120.29 33.0557 120.659 33.5127C121.034 33.9697 121.535 34.1982 122.162 34.1982C122.631 34.1982 123.015 34.0664 123.313 33.8027C123.612 33.5332 123.823 33.0732 123.946 32.4229L126.372 32.8359C126.12 33.9492 125.637 34.79 124.922 35.3584C124.207 35.9268 123.249 36.2109 122.048 36.2109C120.683 36.2109 119.593 35.7803 118.778 34.9189C117.97 34.0576 117.565 32.8652 117.565 31.3418C117.565 29.8008 117.973 28.6025 118.787 27.7471C119.602 26.8857 120.703 26.4551 122.092 26.4551C123.229 26.4551 124.131 26.7012 124.799 27.1934C125.473 27.6797 125.956 28.4238 126.249 29.4258ZM127.559 31.2012C127.559 30.3809 127.761 29.5869 128.165 28.8193C128.569 28.0518 129.141 27.4658 129.879 27.0615C130.623 26.6572 131.452 26.4551 132.366 26.4551C133.778 26.4551 134.936 26.915 135.838 27.835C136.74 28.749 137.191 29.9062 137.191 31.3066C137.191 32.7188 136.734 33.8906 135.82 34.8223C134.912 35.748 133.767 36.2109 132.384 36.2109C131.528 36.2109 130.711 36.0176 129.932 35.6309C129.158 35.2441 128.569 34.6787 128.165 33.9346C127.761 33.1846 127.559 32.2734 127.559 31.2012ZM130.09 31.333C130.09 32.2588 130.31 32.9678 130.749 33.46C131.188 33.9521 131.73 34.1982 132.375 34.1982C133.02 34.1982 133.559 33.9521 133.992 33.46C134.432 32.9678 134.651 32.2529 134.651 31.3154C134.651 30.4014 134.432 29.6982 133.992 29.2061C133.559 28.7139 133.02 28.4678 132.375 28.4678C131.73 28.4678 131.188 28.7139 130.749 29.2061C130.31 29.6982 130.09 30.4072 130.09 31.333ZM139.16 26.666H144.565C145.673 26.666 146.502 26.8682 147.053 27.2725C147.604 27.6768 147.879 28.2861 147.879 29.1006C147.879 29.6221 147.727 30.0762 147.422 30.4629C147.123 30.8496 146.745 31.1074 146.288 31.2363C146.933 31.3945 147.413 31.6904 147.729 32.124C148.046 32.5576 148.204 33.0322 148.204 33.5479C148.204 34.2744 147.938 34.8662 147.404 35.3232C146.871 35.7744 146.083 36 145.04 36H139.16V26.666ZM141.647 30.542H143.238C144.006 30.542 144.56 30.4453 144.899 30.252C145.245 30.0586 145.418 29.7539 145.418 29.3379C145.418 28.9453 145.257 28.667 144.935 28.5029C144.618 28.333 144.053 28.248 143.238 28.248H141.647V30.542ZM141.647 34.418H143.599C144.302 34.418 144.814 34.333 145.137 34.1631C145.459 33.9932 145.62 33.6885 145.62 33.249C145.62 32.792 145.436 32.4785 145.066 32.3086C144.697 32.1328 143.979 32.0449 142.913 32.0449H141.647V34.418ZM151.808 29.5137L149.566 29.1094C149.818 28.207 150.252 27.5391 150.867 27.1055C151.482 26.6719 152.396 26.4551 153.609 26.4551C154.711 26.4551 155.531 26.5869 156.07 26.8506C156.609 27.1084 156.987 27.4395 157.204 27.8438C157.427 28.2422 157.538 28.9775 157.538 30.0498L157.512 32.9326C157.512 33.7529 157.55 34.3594 157.626 34.752C157.708 35.1387 157.857 35.5547 158.074 36H155.631C155.566 35.8359 155.487 35.5928 155.394 35.2705C155.353 35.124 155.323 35.0273 155.306 34.9805C154.884 35.3906 154.433 35.6982 153.952 35.9033C153.472 36.1084 152.959 36.2109 152.414 36.2109C151.453 36.2109 150.694 35.9502 150.138 35.4287C149.587 34.9072 149.312 34.248 149.312 33.4512C149.312 32.9238 149.438 32.4551 149.689 32.0449C149.941 31.6289 150.293 31.3125 150.744 31.0957C151.201 30.873 151.857 30.6797 152.713 30.5156C153.867 30.2988 154.667 30.0967 155.112 29.9092V29.6631C155.112 29.1885 154.995 28.8516 154.761 28.6523C154.526 28.4473 154.084 28.3447 153.434 28.3447C152.994 28.3447 152.651 28.4326 152.405 28.6084C152.159 28.7783 151.96 29.0801 151.808 29.5137ZM155.112 31.5176C154.796 31.623 154.295 31.749 153.609 31.8955C152.924 32.042 152.476 32.1855 152.265 32.3262C151.942 32.5547 151.781 32.8447 151.781 33.1963C151.781 33.542 151.91 33.8408 152.168 34.0928C152.426 34.3447 152.754 34.4707 153.152 34.4707C153.598 34.4707 154.022 34.3242 154.427 34.0312C154.726 33.8086 154.922 33.5361 155.016 33.2139C155.08 33.0029 155.112 32.6016 155.112 32.0098V31.5176ZM158.874 26.666H167.32V28.6611H164.332V36H161.862V28.6611H158.874V26.666ZM168.858 26.666H171.328V30.542H173.807C174.779 30.542 175.526 30.6123 176.048 30.7529C176.569 30.8936 177.003 31.1982 177.349 31.667C177.694 32.1299 177.867 32.6689 177.867 33.2842C177.867 34.1865 177.557 34.8662 176.936 35.3232C176.32 35.7744 175.395 36 174.158 36H168.858V26.666ZM171.328 34.4355H173.631C174.352 34.4355 174.812 34.3184 175.011 34.084C175.216 33.8496 175.318 33.5713 175.318 33.249C175.318 32.7979 175.143 32.4873 174.791 32.3174C174.445 32.1475 173.827 32.0625 172.937 32.0625H171.328V34.4355ZM188.194 36L183.589 23.1152H186.41L189.671 32.6514L192.826 23.1152H195.586L190.972 36H188.194ZM196.948 36V23.1152H199.55V28.8369L204.806 23.1152H208.304L203.452 28.1338L208.567 36H205.201L201.659 29.9531L199.55 32.1064V36H196.948Z" fill="white"/>
<path d="M0 30C0 13.4315 13.4315 0 30 0C46.5685 0 60 13.4315 60 30C60 46.5685 46.5685 60 30 60C13.4315 60 0 46.5685 0 30Z" fill="#4C6C91"/>
<path d="M31.5693 39.8451C31.5693 39.8451 32.1469 39.7821 32.4427 39.4702C32.7134 39.1845 32.704 38.6452 32.704 38.6452C32.704 38.6452 32.668 36.1272 33.8591 35.7554C35.0329 35.3898 36.5402 38.1905 38.1397 39.2674C39.348 40.0817 40.2651 39.9035 40.2651 39.9035L44.5395 39.8451C44.5395 39.8451 46.7745 39.7099 45.7149 37.9846C45.6272 37.8433 45.0967 36.7079 42.5377 34.3758C39.8566 31.9346 40.2166 32.3294 43.4439 28.1061C45.4097 25.5343 46.1954 23.9642 45.9497 23.2928C45.7165 22.6506 44.2703 22.8212 44.2703 22.8212L39.4591 22.8504C39.4591 22.8504 39.1023 22.8027 38.8378 22.9579C38.5795 23.11 38.412 23.4649 38.412 23.4649C38.412 23.4649 37.6514 25.4544 36.6356 27.1474C34.493 30.7178 33.6369 30.9068 33.2863 30.6856C32.4708 30.1678 32.6743 28.6085 32.6743 27.5008C32.6743 24.0395 33.2096 22.5969 31.6335 22.2235C31.1107 22.0991 30.7257 22.0177 29.3875 22.0038C27.6706 21.9869 26.2182 22.01 25.3949 22.4048C24.8471 22.6675 24.4245 23.2544 24.6828 23.2882C25.0005 23.3297 25.7205 23.4787 26.1024 23.9888C26.5954 24.6478 26.5782 26.1258 26.5782 26.1258C26.5782 26.1258 26.8614 30.2001 25.9161 30.7055C25.2681 31.0527 24.3792 30.3445 22.4681 27.1044C21.4899 25.4452 20.7512 23.6108 20.7512 23.6108C20.7512 23.6108 20.6088 23.2682 20.3537 23.0839C20.0453 22.8611 19.6149 22.792 19.6149 22.792L15.0432 22.8212C15.0432 22.8212 14.3561 22.8396 14.1041 23.133C13.8803 23.3927 14.0869 23.9319 14.0869 23.9319C14.0869 23.9319 17.6664 32.1528 21.72 36.2962C25.4372 40.094 29.6567 39.8451 29.6567 39.8451H31.5693Z" fill="white"/>
</symbol></svg>