<svg viewBox="0 0 115 152" fill="none" xmlns="http://www.w3.org/2000/svg">
  <path d="M12.8164 105.684L16.1797 106.75C15.6641 108.625 14.8047 110.02 13.6016 110.934C12.4062 111.84 10.8867 112.293 9.04297 112.293C6.76172 112.293 4.88672 111.516 3.41797 109.961C1.94922 108.398 1.21484 106.266 1.21484 103.562C1.21484 100.703 1.95312 98.4844 3.42969 96.9062C4.90625 95.3203 6.84766 94.5273 9.25391 94.5273C11.3555 94.5273 13.0625 95.1484 14.375 96.3906C15.1562 97.125 15.7422 98.1797 16.1328 99.5547L12.6992 100.375C12.4961 99.4844 12.0703 98.7812 11.4219 98.2656C10.7812 97.75 10 97.4922 9.07812 97.4922C7.80469 97.4922 6.76953 97.9492 5.97266 98.8633C5.18359 99.7773 4.78906 101.258 4.78906 103.305C4.78906 105.477 5.17969 107.023 5.96094 107.945C6.74219 108.867 7.75781 109.328 9.00781 109.328C9.92969 109.328 10.7227 109.035 11.3867 108.449C12.0508 107.863 12.5273 106.941 12.8164 105.684ZM19.2383 99.5547H23.3164L26.4102 108.227L29.5273 99.5547H33.5938V112H30.793V103.809L27.7578 112H24.9453L22.0508 103.809V112H19.2383V99.5547ZM35.8203 105.602C35.8203 104.508 36.0898 103.449 36.6289 102.426C37.168 101.402 37.9297 100.621 38.9141 100.082C39.9062 99.543 41.0117 99.2734 42.2305 99.2734C44.1133 99.2734 45.6562 99.8867 46.8594 101.113C48.0625 102.332 48.6641 103.875 48.6641 105.742C48.6641 107.625 48.0547 109.188 46.8359 110.43C45.625 111.664 44.0977 112.281 42.2539 112.281C41.1133 112.281 40.0234 112.023 38.9844 111.508C37.9531 110.992 37.168 110.238 36.6289 109.246C36.0898 108.246 35.8203 107.031 35.8203 105.602ZM39.1953 105.777C39.1953 107.012 39.4883 107.957 40.0742 108.613C40.6602 109.27 41.3828 109.598 42.2422 109.598C43.1016 109.598 43.8203 109.27 44.3984 108.613C44.9844 107.957 45.2773 107.004 45.2773 105.754C45.2773 104.535 44.9844 103.598 44.3984 102.941C43.8203 102.285 43.1016 101.957 42.2422 101.957C41.3828 101.957 40.6602 102.285 40.0742 102.941C39.4883 103.598 39.1953 104.543 39.1953 105.777ZM49.168 99.5547H60.4297V102.215H56.4453V112H53.1523V102.215H49.168V99.5547ZM62.3164 99.5547H65.3867V101.383C65.7852 100.758 66.3242 100.25 67.0039 99.8594C67.6836 99.4688 68.4375 99.2734 69.2656 99.2734C70.7109 99.2734 71.9375 99.8398 72.9453 100.973C73.9531 102.105 74.457 103.684 74.457 105.707C74.457 107.785 73.9492 109.402 72.9336 110.559C71.918 111.707 70.6875 112.281 69.2422 112.281C68.5547 112.281 67.9297 112.145 67.3672 111.871C66.8125 111.598 66.2266 111.129 65.6094 110.465V116.734H62.3164V99.5547ZM65.5742 105.566C65.5742 106.965 65.8516 108 66.4062 108.672C66.9609 109.336 67.6367 109.668 68.4336 109.668C69.1992 109.668 69.8359 109.363 70.3438 108.754C70.8516 108.137 71.1055 107.129 71.1055 105.73C71.1055 104.426 70.8438 103.457 70.3203 102.824C69.7969 102.191 69.1484 101.875 68.375 101.875C67.5703 101.875 66.9023 102.188 66.3711 102.812C65.8398 103.43 65.5742 104.348 65.5742 105.566ZM84.2891 108.039L87.5703 108.59C87.1484 109.793 86.4805 110.711 85.5664 111.344C84.6602 111.969 83.5234 112.281 82.1562 112.281C79.9922 112.281 78.3906 111.574 77.3516 110.16C76.5312 109.027 76.1211 107.598 76.1211 105.871C76.1211 103.809 76.6602 102.195 77.7383 101.031C78.8164 99.8594 80.1797 99.2734 81.8281 99.2734C83.6797 99.2734 85.1406 99.8867 86.2109 101.113C87.2812 102.332 87.793 104.203 87.7461 106.727H79.4961C79.5195 107.703 79.7852 108.465 80.293 109.012C80.8008 109.551 81.4336 109.82 82.1914 109.82C82.707 109.82 83.1406 109.68 83.4922 109.398C83.8438 109.117 84.1094 108.664 84.2891 108.039ZM84.4766 104.711C84.4531 103.758 84.207 103.035 83.7383 102.543C83.2695 102.043 82.6992 101.793 82.0273 101.793C81.3086 101.793 80.7148 102.055 80.2461 102.578C79.7773 103.102 79.5469 103.812 79.5547 104.711H84.4766ZM88.6367 99.5547H99.8984V102.215H95.9141V112H92.6211V102.215H88.6367V99.5547ZM101.949 99.5547H105.242V104.723H108.547C109.844 104.723 110.84 104.816 111.535 105.004C112.23 105.191 112.809 105.598 113.27 106.223C113.73 106.84 113.961 107.559 113.961 108.379C113.961 109.582 113.547 110.488 112.719 111.098C111.898 111.699 110.664 112 109.016 112H101.949V99.5547ZM105.242 109.914H108.312C109.273 109.914 109.887 109.758 110.152 109.445C110.426 109.133 110.562 108.762 110.562 108.332C110.562 107.73 110.328 107.316 109.859 107.09C109.398 106.863 108.574 106.75 107.387 106.75H105.242V109.914ZM22.8594 131.555H30.0664C31.543 131.555 32.6484 131.824 33.3828 132.363C34.1172 132.902 34.4844 133.715 34.4844 134.801C34.4844 135.496 34.2812 136.102 33.875 136.617C33.4766 137.133 32.9727 137.477 32.3633 137.648C33.2227 137.859 33.8633 138.254 34.2852 138.832C34.707 139.41 34.918 140.043 34.918 140.73C34.918 141.699 34.5625 142.488 33.8516 143.098C33.1406 143.699 32.0898 144 30.6992 144H22.8594V131.555ZM26.1758 136.723H28.2969C29.3203 136.723 30.0586 136.594 30.5117 136.336C30.9727 136.078 31.2031 135.672 31.2031 135.117C31.2031 134.594 30.9883 134.223 30.5586 134.004C30.1367 133.777 29.3828 133.664 28.2969 133.664H26.1758V136.723ZM26.1758 141.891H28.7773C29.7148 141.891 30.3984 141.777 30.8281 141.551C31.2578 141.324 31.4727 140.918 31.4727 140.332C31.4727 139.723 31.2266 139.305 30.7344 139.078C30.2422 138.844 29.2852 138.727 27.8633 138.727H26.1758V141.891ZM37.5078 131.555H40.6719V139.371L45.7344 131.555H48.9688V144H45.8047V136.043L40.6719 144H37.5078V131.555ZM62.6445 144H53.2227V147.281H50.5508V141.305H51.8984C52.4609 140.68 52.9258 139.703 53.293 138.375C53.6602 137.047 53.8789 134.773 53.9492 131.555H63.9922V141.305H65.3281V147.281H62.6445V144ZM60.7344 141.305L60.7461 134.262H56.7617C56.6289 137.699 56.082 140.047 55.1211 141.305H60.7344ZM74.7969 140.039L78.0781 140.59C77.6562 141.793 76.9883 142.711 76.0742 143.344C75.168 143.969 74.0312 144.281 72.6641 144.281C70.5 144.281 68.8984 143.574 67.8594 142.16C67.0391 141.027 66.6289 139.598 66.6289 137.871C66.6289 135.809 67.168 134.195 68.2461 133.031C69.3242 131.859 70.6875 131.273 72.3359 131.273C74.1875 131.273 75.6484 131.887 76.7188 133.113C77.7891 134.332 78.3008 136.203 78.2539 138.727H70.0039C70.0273 139.703 70.293 140.465 70.8008 141.012C71.3086 141.551 71.9414 141.82 72.6992 141.82C73.2148 141.82 73.6484 141.68 74 141.398C74.3516 141.117 74.6172 140.664 74.7969 140.039ZM74.9844 136.711C74.9609 135.758 74.7148 135.035 74.2461 134.543C73.7773 134.043 73.207 133.793 72.5352 133.793C71.8164 133.793 71.2227 134.055 70.7539 134.578C70.2852 135.102 70.0547 135.812 70.0625 136.711H74.9844ZM80.1875 137.602C80.1875 136.508 80.457 135.449 80.9961 134.426C81.5352 133.402 82.2969 132.621 83.2812 132.082C84.2734 131.543 85.3789 131.273 86.5977 131.273C88.4805 131.273 90.0234 131.887 91.2266 133.113C92.4297 134.332 93.0312 135.875 93.0312 137.742C93.0312 139.625 92.4219 141.188 91.2031 142.43C89.9922 143.664 88.4648 144.281 86.6211 144.281C85.4805 144.281 84.3906 144.023 83.3516 143.508C82.3203 142.992 81.5352 142.238 80.9961 141.246C80.457 140.246 80.1875 139.031 80.1875 137.602ZM83.5625 137.777C83.5625 139.012 83.8555 139.957 84.4414 140.613C85.0273 141.27 85.75 141.598 86.6094 141.598C87.4688 141.598 88.1875 141.27 88.7656 140.613C89.3516 139.957 89.6445 139.004 89.6445 137.754C89.6445 136.535 89.3516 135.598 88.7656 134.941C88.1875 134.285 87.4688 133.957 86.6094 133.957C85.75 133.957 85.0273 134.285 84.4414 134.941C83.8555 135.598 83.5625 136.543 83.5625 137.777Z"/>
  <path d="M85.3333 33.2642C90.5185 36.2579 90.5185 43.7421 85.3333 46.7358L48.6667 67.9053C43.4815 70.8989 37 67.1569 37 61.1695L37 18.8305C37 12.8432 43.4815 9.10107 48.6667 12.0947L85.3333 33.2642Z"/>
</svg>
