<svg width="256" height="60" viewBox="0 0 256 60" fill="none" xmlns="http://www.w3.org/2000/svg">
<rect width="256" height="60" rx="30" fill="#27466A"/>
<path d="M76.4414 23.1152H85.1689V25.2773H79.043V36H76.4414V23.1152ZM85.0371 31.2012C85.0371 30.3809 85.2393 29.5869 85.6436 28.8193C86.0479 28.0518 86.6191 27.4658 87.3574 27.0615C88.1016 26.6572 88.9307 26.4551 89.8447 26.4551C91.2568 26.4551 92.4141 26.915 93.3164 27.835C94.2188 28.749 94.6699 29.9062 94.6699 31.3066C94.6699 32.7188 94.2129 33.8906 93.2988 34.8223C92.3906 35.748 91.2451 36.2109 89.8623 36.2109C89.0068 36.2109 88.1895 36.0176 87.4102 35.6309C86.6367 35.2441 86.0479 34.6787 85.6436 33.9346C85.2393 33.1846 85.0371 32.2734 85.0371 31.2012ZM87.5684 31.333C87.5684 32.2588 87.7881 32.9678 88.2275 33.46C88.667 33.9521 89.209 34.1982 89.8535 34.1982C90.498 34.1982 91.0371 33.9521 91.4707 33.46C91.9102 32.9678 92.1299 32.2529 92.1299 31.3154C92.1299 30.4014 91.9102 29.6982 91.4707 29.2061C91.0371 28.7139 90.498 28.4678 89.8535 28.4678C89.209 28.4678 88.667 28.7139 88.2275 29.2061C87.7881 29.6982 87.5684 30.4072 87.5684 31.333ZM96.8232 26.666H105.094V36H102.633V28.6699H99.2666V32.8623C99.2666 33.9287 99.1436 34.6787 98.8975 35.1123C98.6514 35.54 98.3789 35.8213 98.0801 35.9561C97.7812 36.0908 97.3008 36.1582 96.6387 36.1582C96.2461 36.1582 95.7275 36.1055 95.083 36V34.1807C95.1357 34.1807 95.2734 34.1865 95.4961 34.1982C95.7539 34.2158 95.9531 34.2246 96.0938 34.2246C96.4277 34.2246 96.6328 34.1162 96.709 33.8994C96.7852 33.6768 96.8232 33.0645 96.8232 32.0625V26.666ZM106.781 31.2012C106.781 30.3809 106.983 29.5869 107.388 28.8193C107.792 28.0518 108.363 27.4658 109.102 27.0615C109.846 26.6572 110.675 26.4551 111.589 26.4551C113.001 26.4551 114.158 26.915 115.061 27.835C115.963 28.749 116.414 29.9062 116.414 31.3066C116.414 32.7188 115.957 33.8906 115.043 34.8223C114.135 35.748 112.989 36.2109 111.606 36.2109C110.751 36.2109 109.934 36.0176 109.154 35.6309C108.381 35.2441 107.792 34.6787 107.388 33.9346C106.983 33.1846 106.781 32.2734 106.781 31.2012ZM109.312 31.333C109.312 32.2588 109.532 32.9678 109.972 33.46C110.411 33.9521 110.953 34.1982 111.598 34.1982C112.242 34.1982 112.781 33.9521 113.215 33.46C113.654 32.9678 113.874 32.2529 113.874 31.3154C113.874 30.4014 113.654 29.6982 113.215 29.2061C112.781 28.7139 112.242 28.4678 111.598 28.4678C110.953 28.4678 110.411 28.7139 109.972 29.2061C109.532 29.6982 109.312 30.4072 109.312 31.333ZM126.249 29.4258L123.814 29.8652C123.732 29.3789 123.545 29.0127 123.252 28.7666C122.965 28.5205 122.59 28.3975 122.127 28.3975C121.512 28.3975 121.02 28.6113 120.65 29.0391C120.287 29.4609 120.105 30.1699 120.105 31.166C120.105 32.2734 120.29 33.0557 120.659 33.5127C121.034 33.9697 121.535 34.1982 122.162 34.1982C122.631 34.1982 123.015 34.0664 123.313 33.8027C123.612 33.5332 123.823 33.0732 123.946 32.4229L126.372 32.8359C126.12 33.9492 125.637 34.79 124.922 35.3584C124.207 35.9268 123.249 36.2109 122.048 36.2109C120.683 36.2109 119.593 35.7803 118.778 34.9189C117.97 34.0576 117.565 32.8652 117.565 31.3418C117.565 29.8008 117.973 28.6025 118.787 27.7471C119.602 26.8857 120.703 26.4551 122.092 26.4551C123.229 26.4551 124.131 26.7012 124.799 27.1934C125.473 27.6797 125.956 28.4238 126.249 29.4258ZM127.559 31.2012C127.559 30.3809 127.761 29.5869 128.165 28.8193C128.569 28.0518 129.141 27.4658 129.879 27.0615C130.623 26.6572 131.452 26.4551 132.366 26.4551C133.778 26.4551 134.936 26.915 135.838 27.835C136.74 28.749 137.191 29.9062 137.191 31.3066C137.191 32.7188 136.734 33.8906 135.82 34.8223C134.912 35.748 133.767 36.2109 132.384 36.2109C131.528 36.2109 130.711 36.0176 129.932 35.6309C129.158 35.2441 128.569 34.6787 128.165 33.9346C127.761 33.1846 127.559 32.2734 127.559 31.2012ZM130.09 31.333C130.09 32.2588 130.31 32.9678 130.749 33.46C131.188 33.9521 131.73 34.1982 132.375 34.1982C133.02 34.1982 133.559 33.9521 133.992 33.46C134.432 32.9678 134.651 32.2529 134.651 31.3154C134.651 30.4014 134.432 29.6982 133.992 29.2061C133.559 28.7139 133.02 28.4678 132.375 28.4678C131.73 28.4678 131.188 28.7139 130.749 29.2061C130.31 29.6982 130.09 30.4072 130.09 31.333ZM139.16 26.666H144.565C145.673 26.666 146.502 26.8682 147.053 27.2725C147.604 27.6768 147.879 28.2861 147.879 29.1006C147.879 29.6221 147.727 30.0762 147.422 30.4629C147.123 30.8496 146.745 31.1074 146.288 31.2363C146.933 31.3945 147.413 31.6904 147.729 32.124C148.046 32.5576 148.204 33.0322 148.204 33.5479C148.204 34.2744 147.938 34.8662 147.404 35.3232C146.871 35.7744 146.083 36 145.04 36H139.16V26.666ZM141.647 30.542H143.238C144.006 30.542 144.56 30.4453 144.899 30.252C145.245 30.0586 145.418 29.7539 145.418 29.3379C145.418 28.9453 145.257 28.667 144.935 28.5029C144.618 28.333 144.053 28.248 143.238 28.248H141.647V30.542ZM141.647 34.418H143.599C144.302 34.418 144.814 34.333 145.137 34.1631C145.459 33.9932 145.62 33.6885 145.62 33.249C145.62 32.792 145.436 32.4785 145.066 32.3086C144.697 32.1328 143.979 32.0449 142.913 32.0449H141.647V34.418ZM151.808 29.5137L149.566 29.1094C149.818 28.207 150.252 27.5391 150.867 27.1055C151.482 26.6719 152.396 26.4551 153.609 26.4551C154.711 26.4551 155.531 26.5869 156.07 26.8506C156.609 27.1084 156.987 27.4395 157.204 27.8438C157.427 28.2422 157.538 28.9775 157.538 30.0498L157.512 32.9326C157.512 33.7529 157.55 34.3594 157.626 34.752C157.708 35.1387 157.857 35.5547 158.074 36H155.631C155.566 35.8359 155.487 35.5928 155.394 35.2705C155.353 35.124 155.323 35.0273 155.306 34.9805C154.884 35.3906 154.433 35.6982 153.952 35.9033C153.472 36.1084 152.959 36.2109 152.414 36.2109C151.453 36.2109 150.694 35.9502 150.138 35.4287C149.587 34.9072 149.312 34.248 149.312 33.4512C149.312 32.9238 149.438 32.4551 149.689 32.0449C149.941 31.6289 150.293 31.3125 150.744 31.0957C151.201 30.873 151.857 30.6797 152.713 30.5156C153.867 30.2988 154.667 30.0967 155.112 29.9092V29.6631C155.112 29.1885 154.995 28.8516 154.761 28.6523C154.526 28.4473 154.084 28.3447 153.434 28.3447C152.994 28.3447 152.651 28.4326 152.405 28.6084C152.159 28.7783 151.96 29.0801 151.808 29.5137ZM155.112 31.5176C154.796 31.623 154.295 31.749 153.609 31.8955C152.924 32.042 152.476 32.1855 152.265 32.3262C151.942 32.5547 151.781 32.8447 151.781 33.1963C151.781 33.542 151.91 33.8408 152.168 34.0928C152.426 34.3447 152.754 34.4707 153.152 34.4707C153.598 34.4707 154.022 34.3242 154.427 34.0312C154.726 33.8086 154.922 33.5361 155.016 33.2139C155.08 33.0029 155.112 32.6016 155.112 32.0098V31.5176ZM158.874 26.666H167.32V28.6611H164.332V36H161.862V28.6611H158.874V26.666ZM168.858 26.666H171.328V30.542H173.807C174.779 30.542 175.526 30.6123 176.048 30.7529C176.569 30.8936 177.003 31.1982 177.349 31.667C177.694 32.1299 177.867 32.6689 177.867 33.2842C177.867 34.1865 177.557 34.8662 176.936 35.3232C176.32 35.7744 175.395 36 174.158 36H168.858V26.666ZM171.328 34.4355H173.631C174.352 34.4355 174.812 34.3184 175.011 34.084C175.216 33.8496 175.318 33.5713 175.318 33.249C175.318 32.7979 175.143 32.4873 174.791 32.3174C174.445 32.1475 173.827 32.0625 172.937 32.0625H171.328V34.4355ZM188.194 36L183.589 23.1152H186.41L189.671 32.6514L192.826 23.1152H195.586L190.972 36H188.194ZM196.948 36V23.1152H199.55V28.8369L204.806 23.1152H208.304L203.452 28.1338L208.567 36H205.201L201.659 29.9531L199.55 32.1064V36H196.948Z" fill="white"/>
<path d="M0 30C0 13.4315 13.4315 0 30 0C46.5685 0 60 13.4315 60 30C60 46.5685 46.5685 60 30 60C13.4315 60 0 46.5685 0 30Z" fill="#4C6C91"/>
<path d="M31.5693 39.8451C31.5693 39.8451 32.1469 39.7821 32.4427 39.4702C32.7134 39.1845 32.704 38.6452 32.704 38.6452C32.704 38.6452 32.668 36.1272 33.8591 35.7554C35.0329 35.3898 36.5402 38.1905 38.1397 39.2674C39.348 40.0817 40.2651 39.9035 40.2651 39.9035L44.5395 39.8451C44.5395 39.8451 46.7745 39.7099 45.7149 37.9846C45.6272 37.8433 45.0967 36.7079 42.5377 34.3758C39.8566 31.9346 40.2166 32.3294 43.4439 28.1061C45.4097 25.5343 46.1954 23.9642 45.9497 23.2928C45.7165 22.6506 44.2703 22.8212 44.2703 22.8212L39.4591 22.8504C39.4591 22.8504 39.1023 22.8027 38.8378 22.9579C38.5795 23.11 38.412 23.4649 38.412 23.4649C38.412 23.4649 37.6514 25.4544 36.6356 27.1474C34.493 30.7178 33.6369 30.9068 33.2863 30.6856C32.4708 30.1678 32.6743 28.6085 32.6743 27.5008C32.6743 24.0395 33.2096 22.5969 31.6335 22.2235C31.1107 22.0991 30.7257 22.0177 29.3875 22.0038C27.6706 21.9869 26.2182 22.01 25.3949 22.4048C24.8471 22.6675 24.4245 23.2544 24.6828 23.2882C25.0005 23.3297 25.7205 23.4787 26.1024 23.9888C26.5954 24.6478 26.5782 26.1258 26.5782 26.1258C26.5782 26.1258 26.8614 30.2001 25.9161 30.7055C25.2681 31.0527 24.3792 30.3445 22.4681 27.1044C21.4899 25.4452 20.7512 23.6108 20.7512 23.6108C20.7512 23.6108 20.6088 23.2682 20.3537 23.0839C20.0453 22.8611 19.6149 22.792 19.6149 22.792L15.0432 22.8212C15.0432 22.8212 14.3561 22.8396 14.1041 23.133C13.8803 23.3927 14.0869 23.9319 14.0869 23.9319C14.0869 23.9319 17.6664 32.1528 21.72 36.2962C25.4372 40.094 29.6567 39.8451 29.6567 39.8451H31.5693Z" fill="white"/>
</svg>
